<?xml version="1.0" standalone="no"?>
<!DOCTYPE svg PUBLIC "-//W3C//DTD SVG 1.1//EN" "http://www.w3.org/Graphics/SVG/1.1/DTD/svg11.dtd" >
<svg>
<metadata>
Created by FontForge 20110222 at Mon Jul  7 23:00:12 2014
 By Orthosie Webhosting
Hippo is a product of MicroLogic Software, Inc.
</metadata>
<defs>
<font id="Hippo-" horiz-adv-x="1020" >
  <font-face 
    font-family="Hippo"
    font-weight="700"
    font-stretch="normal"
    units-per-em="2048"
    panose-1="2 11 10 0 0 0 0 2 0 0"
    ascent="1638"
    descent="-410"
    x-height="1033"
    cap-height="1449"
    bbox="-337 -504 2038 1959"
    underline-thickness="150"
    underline-position="-227"
    unicode-range="U+0020-25CA"
  />
<missing-glyph horiz-adv-x="1372" 
d="M1200 1193v-1032h-1032v1032h1032zM258 1107v-860h852v860h-852z" />
    <glyph glyph-name=".notdef" horiz-adv-x="1372" 
d="M1200 1193v-1032h-1032v1032h1032zM258 1107v-860h852v860h-852z" />
    <glyph glyph-name="glyph1" horiz-adv-x="0" 
 />
    <glyph glyph-name="space" unicode=" " horiz-adv-x="561" 
 />
    <glyph glyph-name="space" unicode="&#xa0;" horiz-adv-x="561" 
 />
    <glyph glyph-name="logicalnot" unicode="&#xac;" horiz-adv-x="1700" 
d="M1176 364v233h-922v262h1192v-495h-270z" />
    <glyph glyph-name="logicalnot" horiz-adv-x="1700" 
d="M1176 364v233h-922v262h1192v-495h-270z" />
    <glyph glyph-name="pi" unicode="&#x3c0;" horiz-adv-x="1710" 
d="M43 706q31 208 124.5 291.5t268.5 80.5h1258l-41 -239h-180l-117 -839h-412l115 839h-228l-120 -839h-412l119 839q-57 2 -81.5 -25t-39.5 -108h-254z" />
    <glyph glyph-name="Sigma" unicode="&#x2211;" horiz-adv-x="1389" 
d="M1251 1113h-587l368 -360l-350 -402h655v-351h-1278v196l473 538l-452 432v295h1171v-348z" />
    <glyph glyph-name="Omega" unicode="&#x2126;" horiz-adv-x="1700" 
d="M852 1502q329 -4 524.5 -180t200.5 -475q1 -166 -67.5 -291.5t-221.5 -210.5h373v-345h-657v402q63 66 99.5 163.5t37.5 209.5q-1 161 -78.5 259.5t-216.5 101.5q-144 -5 -217.5 -109.5t-73.5 -255.5q3 -109 44 -215t91 -154v-402h-653v345h373q-118 55 -202.5 182
t-88.5 336q1 254 187.5 442t545.5 197z" />
    <glyph glyph-name="infinity" unicode="&#x221e;" horiz-adv-x="1700" 
d="M1174 1035q145 -4 242.5 -126.5t101.5 -315.5q0 -160 -78.5 -289t-239.5 -137q-111 1 -189 67t-165 187q-44 -99 -125 -174.5t-195 -79.5q-167 8 -255 141.5t-89 292.5q-2 148 72.5 286t249.5 148q106 -4 189.5 -78t160.5 -176q58 110 135 181t185 73zM516 761
q-97 -2 -145.5 -46t-48.5 -110q1 -59 45 -103t116 -46q90 4 148.5 62.5t97.5 125.5q-32 48 -84.5 82t-128.5 35zM1217 744q-100 -7 -163 -76t-83 -112q21 -41 76.5 -77.5t140.5 -39.5q79 0 133.5 37.5t56.5 116.5q-2 65 -48 107t-113 44z" />
    <glyph glyph-name="greaterequal" unicode="&#x2265;" horiz-adv-x="1700" 
d="M1446 667l-1192 -371v281l704 206l-704 209v279l1192 -371v-233zM1446 230v-265h-1194v265h1194z" />
    <glyph glyph-name="lessequal" unicode="&#x2264;" horiz-adv-x="1700" 
d="M254 900l1192 371v-279l-705 -209l705 -206v-281l-1192 371v233zM1446 230v-265h-1194v265h1194z" />
    <glyph glyph-name="divide" unicode="&#xf7;" horiz-adv-x="1700" 
d="M1030 1025q-1 -77 -50.5 -128.5t-129.5 -53.5q-84 3 -132.5 56.5t-49.5 125.5q2 68 51.5 122.5t126.5 57.5q84 -3 133.5 -57.5t50.5 -122.5zM1444 738v-268h-1190v268h1190zM1030 185q-1 -77 -50.5 -128.5t-129.5 -53.5q-84 3 -132.5 56.5t-49.5 125.5q2 68 51.5 123
t126.5 58q84 -3 133.5 -58t50.5 -123z" />
    <glyph glyph-name="exclam" unicode="!" horiz-adv-x="567" 
d="M80 1449h405l-14 -922h-377zM283 -27q-100 4 -163 69t-65 156q1 84 61.5 152.5t168.5 72.5q101 -4 162 -70.5t63 -154.5q-1 -90 -61.5 -155.5t-165.5 -69.5z" />
    <glyph glyph-name="quotedbl" unicode="&#x22;" horiz-adv-x="754" 
d="M430 1429h254v-560h-254v560zM68 869v560h254v-560h-254z" />
    <glyph glyph-name="numbersign" unicode="#" horiz-adv-x="1569" 
d="M1161 1457h287l-131 -364h254l-96 -267h-254l-76 -215h258l-98 -266h-254l-131 -363h-285l131 363h-229l-131 -363h-285l131 363h-253l95 266h254l74 215h-258l98 267h256l129 364h287l-131 -364h229zM944 826h-244l-75 -219h241z" />
    <glyph glyph-name="dollar" unicode="$" horiz-adv-x="1124" 
d="M934 1326v-358q-24 12 -59 20t-60 8q-62 -2 -88 -33t-25 -63q10 -66 78 -148.5t78 -250.5q0 -105 -44 -182.5t-132 -139.5v-255h-197v171q-26 -4 -64 -9.5t-69 -6.5q-33 1 -80.5 8t-83.5 14v353l78 -9q51 0 82.5 23.5t32.5 75.5q-11 76 -85 159t-85 232q0 112 68 212
t206 171v207h197v-164h96q26 -1 75 -13.5t81 -21.5z" />
    <glyph glyph-name="percent" unicode="%" horiz-adv-x="1333" 
d="M1063 1447l-586 -1449h-209l588 1449h207zM311 1465q122 -4 204 -87.5t85 -200.5q-3 -114 -81.5 -200t-201.5 -91q-134 5 -212 91t-80 200q3 117 84 200.5t202 87.5zM197 1170q1 -40 30.5 -74t81.5 -36q55 2 86.5 35t32.5 80q-1 47 -35 80.5t-82 35.5q-50 -2 -81.5 -37.5
t-32.5 -83.5zM1016 151q54 2 86 35t33 79q-2 48 -36 82t-81 35q-50 -2 -82 -37.5t-33 -83.5q1 -40 30.5 -74t82.5 -36zM1024 -20q-134 5 -212.5 89.5t-80.5 197.5q3 118 84 201.5t203 87.5q122 -4 204 -87.5t85 -201.5q-3 -113 -81.5 -197.5t-201.5 -89.5z" />
    <glyph glyph-name="ampersand" unicode="&#x26;" horiz-adv-x="1190" 
d="M555 1195q-48 -2 -64.5 -30t-15.5 -56q3 -42 31.5 -81.5t52.5 -61.5q34 30 61 61.5t29 85.5q1 32 -20 56.5t-74 25.5zM557 1478q199 -7 302 -129t104 -277q-2 -127 -59 -209.5t-142 -115.5l104 -170h234q-1 -109 -17 -164.5t-41 -110.5l179 -302h-363l-43 75
q-56 -43 -131 -71.5t-174 -30.5q-219 8 -346.5 147.5t-130.5 329.5q3 146 76.5 234t185.5 124q-45 38 -80 109.5t-37 179.5q-1 149 90 262t289 119zM481 558q-41 -15 -56.5 -43t-14.5 -74q1 -70 39.5 -114t103.5 -45q30 1 47.5 11t32.5 21z" />
    <glyph glyph-name="quoteright" unicode="&#x2019;" horiz-adv-x="561" 
d="M283 1478q121 -5 183 -85.5t62 -170.5q-2 -88 -41 -150.5t-96 -116.5l-110 -102v145q-125 2 -187.5 64.5t-62.5 161.5q1 92 67 170.5t185 83.5z" />
    <glyph glyph-name="parenleft" unicode="(" horiz-adv-x="637" 
d="M596 1478q-103 -194 -155 -402.5t-52 -447.5q3 -250 62.5 -458t142.5 -360h-266q-88 148 -165.5 363.5t-82.5 458.5q4 244 78 465.5t172 380.5h266z" />
    <glyph glyph-name="parenright" unicode=")" horiz-adv-x="637" 
d="M39 1478h266q98 -159 172 -380.5t78 -465.5q-5 -243 -82.5 -458.5t-165.5 -363.5h-266q82 152 142 360t63 458q0 239 -52 447.5t-155 402.5z" />
    <glyph glyph-name="asterisk" unicode="*" 
d="M590 1334q100 1 160.5 -46t62.5 -152q0 -40 -11.5 -70.5t-27.5 -46.5l-104 72q19 -69 -21 -142.5t-170 -79.5q-38 1 -69.5 14.5t-44.5 26.5l59 109q-109 1 -163 53t-54 146q1 26 12.5 62t26.5 52l104 -71q0 110 50.5 163.5t144.5 53.5q31 0 65 -11.5t54 -29.5z" />
    <glyph glyph-name="plus" unicode="+" horiz-adv-x="1700" 
d="M989 1211v-473h457v-268h-457v-470h-276v470h-459v268h459v473h276z" />
    <glyph glyph-name="comma" unicode="," horiz-adv-x="561" 
d="M283 466q121 -5 183 -85.5t62 -170.5q-2 -88 -41 -149.5t-96 -113.5l-110 -103v146q-125 3 -187.5 63t-62.5 159q1 93 67 171t185 83z" />
    <glyph glyph-name="hyphen" unicode="-" horiz-adv-x="549" 
d="M489 665v-291h-432v291h432z" />
    <glyph glyph-name="hyphen" unicode="&#xad;" horiz-adv-x="549" 
d="M489 665v-291h-432v291h432z" />
    <glyph glyph-name="period" unicode="." horiz-adv-x="561" 
d="M283 468q118 -5 181 -83.5t64 -172.5q-2 -96 -68.5 -165.5t-172.5 -73.5q-113 4 -183.5 73t-72.5 170q1 94 68 170.5t184 81.5z" />
    <glyph glyph-name="slash" unicode="/" horiz-adv-x="709" 
d="M735 1478l-545 -1668h-212l542 1668h215z" />
    <glyph glyph-name="zero" unicode="0" horiz-adv-x="1124" 
d="M561 1478q252 -10 369.5 -150t116.5 -289v-626q-2 -177 -129 -305t-355 -135q-228 5 -356.5 134.5t-130.5 333.5v578q-1 167 116 308.5t369 150.5zM561 1095q-53 -1 -76.5 -43t-23.5 -107v-438q-1 -70 22 -111.5t76 -42.5q54 1 78.5 37.5t24.5 102.5v462q0 63 -23.5 101
t-77.5 39z" />
    <glyph glyph-name="one" unicode="1" horiz-adv-x="1124" 
d="M776 1449v-1449h-432v1449h432z" />
    <glyph glyph-name="two" unicode="2" horiz-adv-x="1124" 
d="M563 1478q268 -11 392 -167.5t122 -320.5q0 -53 -9 -97t-35.5 -99.5t-76 -145.5t-129.5 -237h248v-411h-948q188 318 299 499.5t164 270.5t67.5 128t14.5 72q1 46 -28 80t-101 36q-67 -2 -98 -40t-31 -86q0 -35 13.5 -57.5t35.5 -37.5l-184 -315q-126 68 -188 170.5
t-62 239.5q1 198 138.5 353.5t395.5 164.5z" />
    <glyph glyph-name="three" unicode="3" horiz-adv-x="1124" 
d="M1016 1449l-271 -567q136 -37 202.5 -146.5t66.5 -263.5q0 -220 -155 -358.5t-464 -144.5q-73 2 -141.5 16t-114.5 28v414q44 -25 108 -41t109 -18q93 1 152 46t61 126q-1 82 -62 132.5t-171 51.5q-27 0 -56.5 -3.5t-50.5 -8.5l172 323h-262v414h877z" />
    <glyph glyph-name="four" unicode="4" horiz-adv-x="1124" 
d="M1028 1449v-1449h-377v1211l-211 -510h133v-278h-584l429 1026h610z" />
    <glyph glyph-name="five" unicode="5" horiz-adv-x="1124" 
d="M991 1035h-420l-16 -73q226 -17 359.5 -141t136.5 -345q-4 -215 -170 -356t-447 -147q-97 2 -186.5 23.5t-155.5 49.5v354q63 -25 143.5 -43.5t137.5 -19.5q128 3 187 58.5t58 121.5q-3 99 -89.5 151.5t-225.5 53.5q-52 -1 -110.5 -8.5t-98.5 -14.5l170 750h727v-414z
" />
    <glyph glyph-name="six" unicode="6" horiz-adv-x="1124" 
d="M776 1336q-108 -245 -176 -400t-103.5 -241t-49 -128t-11.5 -64q0 -57 31.5 -97t101.5 -42q51 1 83.5 34.5t33.5 94.5q0 72 -34.5 104.5t-106.5 32.5l160 385q168 -47 274.5 -171.5t110.5 -320.5q-4 -242 -153 -393t-392 -157q-239 9 -374.5 160t-137.5 345
q-2 76 12 148.5t54 172t114 260.5t190 417z" />
    <glyph glyph-name="seven" unicode="7" horiz-adv-x="1124" 
d="M1112 1449l-446 -1449h-441l355 1035h-512v414h1044z" />
    <glyph glyph-name="eight" unicode="8" horiz-adv-x="1124" 
d="M563 1478q180 0 305.5 -103.5t130.5 -304.5q-2 -86 -29 -150.5t-61 -97.5q57 -51 108 -136.5t54 -237.5q-1 -178 -132.5 -322t-377.5 -153q-245 9 -377 152.5t-133 324.5q1 120 42.5 210t117.5 164q-36 37 -62.5 103.5t-27.5 144.5q4 186 125 295t317 111zM559 1162
q-60 -2 -89.5 -36t-29.5 -76q0 -54 31 -88t94 -35q57 2 86 36.5t29 79.5q0 56 -32 87.5t-89 31.5zM559 636q-81 -1 -129 -49.5t-49 -126.5q0 -74 44.5 -125t133.5 -53q94 2 136.5 53.5t41.5 122.5q0 81 -45.5 129t-132.5 49z" />
    <glyph glyph-name="nine" unicode="9" horiz-adv-x="1124" 
d="M299 0q127 298 205 476t118 271.5t54 135.5t14 68q0 48 -30.5 89t-94.5 44q-66 -2 -98.5 -38.5t-32.5 -85.5q0 -70 36 -106t110 -36l-164 -385q-189 60 -285 189.5t-96 310.5q4 228 150 383.5t393 161.5q249 -9 380 -164.5t132 -353.5q0 -72 -16.5 -140.5t-56.5 -168
t-111.5 -260.5t-184.5 -418z" />
    <glyph glyph-name="colon" unicode=":" horiz-adv-x="594" 
d="M47 810q3 100 72 174t174 78q111 -3 180.5 -74t71.5 -178q-3 -112 -75.5 -178t-172.5 -68q-109 3 -178.5 75t-71.5 171zM47 216q3 100 72 174t174 78q111 -3 180.5 -74t71.5 -178q-3 -112 -75.5 -176.5t-172.5 -66.5q-109 4 -178.5 74t-71.5 169z" />
    <glyph glyph-name="semicolon" unicode=";" horiz-adv-x="594" 
d="M47 810q3 100 72 174t174 78q111 -3 180.5 -74t71.5 -178q-3 -112 -75.5 -178t-172.5 -68q-109 3 -178.5 75t-71.5 171zM47 212q2 103 72 177t180 77q105 -3 174 -75t72 -179q-2 -89 -41 -150.5t-88 -106.5q-25 -24 -59.5 -55t-59.5 -54v144q-134 4 -192.5 69t-57.5 153z
" />
    <glyph glyph-name="less" unicode="&#x3c;" horiz-adv-x="1700" 
d="M1434 933l-799 -330l799 -328v-289l-1170 478v280l1170 482v-293z" />
    <glyph glyph-name="equal" unicode="=" horiz-adv-x="1700" 
d="M254 972h1192v-268h-1192v268zM1446 235h-1192v268h1192v-268z" />
    <glyph glyph-name="greater" unicode="&#x3e;" horiz-adv-x="1700" 
d="M264 1226l1170 -482v-280l-1170 -478v289l799 328l-799 330v293z" />
    <glyph glyph-name="question" unicode="?" horiz-adv-x="1010" 
d="M23 964q6 267 146 391t341 123q205 -4 332 -132t131 -337q-2 -108 -30.5 -178t-65.5 -105q-61 -48 -126.5 -65t-70.5 -87v-59h-383v102q18 279 145.5 287t145.5 107q0 34 -22.5 66t-73.5 34q-52 0 -77.5 -38t-25.5 -109h-366zM487 423q100 -3 161 -69t63 -158
q-3 -97 -67.5 -158.5t-158.5 -64.5q-100 4 -161.5 68.5t-63.5 156.5q2 88 63 154.5t164 70.5z" />
    <glyph glyph-name="at" unicode="@" horiz-adv-x="2040" 
d="M1110 1490q383 -4 617 -202t241 -537q-6 -274 -170 -463t-416 -197q-126 2 -179 45.5t-52 108.5q-58 -71 -116 -111t-175 -41q-165 0 -253 85t-89 259q5 251 144.5 410t353.5 164q81 -1 136.5 -32t84.5 -79l49 82h236l-160 -651q0 -17 13 -32.5t36 -16.5
q143 7 237.5 147.5t98.5 327.5q-3 226 -170.5 370.5t-458.5 149.5q-382 -9 -598.5 -224.5t-220.5 -527.5q3 -303 198.5 -470.5t542.5 -171.5q171 3 320 54t256 128l110 -155q-133 -106 -313 -170.5t-383 -67.5q-421 5 -685.5 227t-272.5 614q8 417 291 692t747 285z
M1044 337q43 39 66.5 109.5t56.5 234.5q1 44 -29 91.5t-100 51.5q-124 -11 -182 -140t-57 -251q0 -66 26 -108t84 -43q31 0 69 13.5t66 41.5z" />
    <glyph glyph-name="A" unicode="A" horiz-adv-x="1255" 
d="M635 1478q239 -7 375 -180.5t139 -432.5v-865h-422v896q2 47 -16 91.5t-76 47.5q-49 -3 -69 -39t-19 -71v-203h112v-385h-112v-337h-443v833q1 282 135 460.5t396 184.5z" />
    <glyph glyph-name="B" unicode="B" horiz-adv-x="1200" 
d="M698 1449q184 0 292 -95.5t110 -287.5q-1 -76 -44 -158t-116 -133q92 -41 153.5 -136t63.5 -230q-3 -194 -127 -302t-330 -111q-29 1 -53.5 2.5t-42.5 1.5v357h117q27 0 43.5 23.5t17.5 67.5q0 42 -16 66.5t-51 25.5h-111v352q74 -2 97.5 15.5t21.5 78.5q-1 39 -17.5 64
t-39.5 26h-129v-1076h-433v1449h594z" />
    <glyph glyph-name="C" unicode="C" horiz-adv-x="1606" 
d="M49 722q10 328 229.5 538.5t532.5 217.5q303 -8 498.5 -190.5t236.5 -436.5l-444 -29q-37 87 -109.5 145t-175.5 60q-135 -5 -221.5 -96.5t-89.5 -206.5q2 -120 86 -209t233 -94q127 3 202.5 88t88.5 213h443q-6 -305 -210 -521.5t-538 -227.5q-346 12 -551.5 231
t-210.5 518z" />
    <glyph glyph-name="D" unicode="D" horiz-adv-x="1497" 
d="M668 1449q343 -7 558 -208.5t222 -520.5q-6 -310 -214.5 -511.5t-541.5 -208.5h-88v429h66q167 2 256 80t90 215q0 127 -88.5 208.5t-261.5 84.5h-129v-1017h-433v1449h564z" />
    <glyph glyph-name="E" unicode="E" horiz-adv-x="973" 
d="M614 886h267v-324h-318q-30 0 -47.5 -18.5t-17.5 -52.5q0 -33 17.5 -52.5t49.5 -19.5h334v-419h-362q-202 6 -326 121.5t-127 268.5v578q4 251 137 366.5t348 114.5h330v-422h-291q-35 0 -52 -17.5t-17 -54.5q0 -36 19.5 -52.5t55.5 -16.5z" />
    <glyph glyph-name="F" unicode="F" horiz-adv-x="1010" 
d="M741 988q-1 19 -28.5 48t-71.5 32q-43 0 -68 -30t-26 -89v-180h135v-385h-135v-384h-443v898q2 262 150 419t418 161q141 0 249 -58t179 -168z" />
    <glyph glyph-name="G" unicode="G" horiz-adv-x="1341" 
d="M1018 1441v-461q-36 19 -82.5 32.5t-93.5 14.5q-160 -4 -248.5 -96.5t-89.5 -229.5q0 -111 79.5 -204t237.5 -99q63 0 83 14t18 36q1 23 -20.5 36t-78.5 13h-75v327h409q54 -65 93.5 -150t41.5 -186q0 -179 -132.5 -341t-397.5 -174q-350 18 -532 255t-183 494
q6 304 208.5 524.5t528.5 231.5q85 -1 139 -12t95 -25z" />
    <glyph glyph-name="H" unicode="H" horiz-adv-x="1255" 
d="M537 1449v-528h112v-385h-112v-536h-433v1449h433zM717 0v1449h432v-1449h-432z" />
    <glyph glyph-name="I" unicode="I" horiz-adv-x="643" 
d="M104 0v1449h433v-1449h-433z" />
    <glyph glyph-name="J" unicode="J" horiz-adv-x="709" 
d="M623 1449v-907q-2 -275 -121.5 -421t-337.5 -148q-34 2 -64 10t-53 17v419q16 0 30 -3t27 -3q48 0 71.5 26.5t23.5 75.5v934h424z" />
    <glyph glyph-name="K" unicode="K" horiz-adv-x="1313" 
d="M104 0v1449h433v-1449h-433zM1348 1449l-365 -664l363 -785h-480l-313 785l344 664h451z" />
    <glyph glyph-name="L" unicode="L" horiz-adv-x="745" 
d="M84 1449h432v-860q1 -85 36.5 -128.5t92.5 -43.5q19 0 35 1t27 1v-419h-136q-241 10 -364 162.5t-123 330.5v956z" />
    <glyph glyph-name="M" unicode="M" horiz-adv-x="1720" 
d="M496 1478q124 -2 220.5 -60.5t143.5 -152.5q67 105 157 159t208 54q158 2 286 -107t136 -356v-1015h-406v984q0 34 -21.5 59.5t-64.5 26.5q-53 -2 -72 -39.5t-18 -93.5v-937h-410v998q0 22 -22.5 46t-63.5 26q-48 0 -69 -34t-21 -99v-937h-405v945q3 273 116 403.5
t306 129.5z" />
    <glyph glyph-name="N" unicode="N" horiz-adv-x="1219" 
d="M604 1478q255 -14 381.5 -198t126.5 -372v-908h-424v876q1 83 -18.5 120.5t-69.5 36.5q-44 1 -63 -33t-19 -108v-892h-424v876q2 231 135.5 411.5t374.5 190.5z" />
    <glyph glyph-name="O" unicode="O" horiz-adv-x="1606" 
d="M813 1478q317 -9 526 -225.5t217 -530.5q-7 -312 -215 -525.5t-536 -223.5q-343 13 -548 236t-210 515q9 324 229 535t537 219zM803 1054q-142 -4 -235.5 -99.5t-96.5 -234.5q3 -135 95.5 -228.5t244.5 -97.5q133 3 225.5 95t96.5 235q-4 143 -98.5 235t-231.5 95z" />
    <glyph glyph-name="P" unicode="P" horiz-adv-x="1200" 
d="M643 1478q261 -10 399.5 -173.5t139.5 -353.5q-5 -213 -146.5 -336.5t-353.5 -126.5q-39 0 -55 1.5t-15 1.5v362l35 -2q52 1 86 33t35 90q0 44 -31.5 80.5t-91.5 38.5q-55 -2 -86.5 -43t-32.5 -101v-949h-432v886q6 301 162 447t387 145z" />
    <glyph glyph-name="Q" unicode="Q" horiz-adv-x="1606" 
d="M47 718q8 323 223 537.5t535 222.5q323 -9 533 -225.5t218 -530.5q-13 -320 -196.5 -512.5t-376.5 -209.5v-133h-377v131q-195 35 -371 225.5t-188 494.5zM807 1054q-148 -4 -240.5 -101t-95.5 -243q0 -93 39 -156.5t113 -91.5v149h356v-147q66 14 109 80t45 166
q-3 149 -93.5 245t-232.5 99z" />
    <glyph glyph-name="R" unicode="R" horiz-adv-x="1247" 
d="M653 835q68 -1 94 23.5t25 80.5q0 42 -21.5 68.5t-62.5 27.5h-151v-1035h-433v1449h586q244 -7 381 -151t139 -343q-2 -122 -59.5 -214.5t-142.5 -155.5l247 -585h-450l-199 456v379h47z" />
    <glyph glyph-name="S" unicode="S" horiz-adv-x="821" 
d="M582 1478q73 -1 126.5 -14t94.5 -29v-420q-25 11 -54 20.5t-61 10.5q-56 -1 -86.5 -32.5t-30.5 -78.5q0 -45 23.5 -87t53.5 -93t54.5 -121t26.5 -172q-9 -231 -160.5 -360.5t-341.5 -132.5q-57 2 -103.5 11.5t-66.5 15.5v409q4 -1 36.5 -5.5t49.5 -5.5q50 1 78.5 29
t28.5 72q-2 63 -27.5 111t-58.5 97.5t-57.5 112t-24.5 152.5q3 193 136.5 347t363.5 163z" />
    <glyph glyph-name="T" unicode="T" horiz-adv-x="1161" 
d="M51 1449h1055v-422h-309v-1027h-432v1027h-314v422z" />
    <glyph glyph-name="U" unicode="U" horiz-adv-x="1219" 
d="M94 1449h424v-893q1 -85 28 -116t68 -29q38 1 60.5 28.5t23.5 75.5v934h424v-866q-6 -287 -151 -446.5t-363 -163.5q-189 -2 -346.5 147.5t-167.5 488.5v840z" />
    <glyph glyph-name="V" unicode="V" horiz-adv-x="1237" 
d="M487 1449l129 -465l132 465h516l-648 -1529l-642 1529h513z" />
    <glyph glyph-name="W" unicode="W" horiz-adv-x="1720" 
d="M479 1449v-973q0 -41 20.5 -69t67.5 -29q54 3 71.5 34t16.5 60v977h410v-973q-1 -36 17 -66t71 -32q50 2 69.5 31t18.5 63v977h406v-1018q-1 -194 -107 -323t-311 -135q-149 5 -240 71t-129 139q-32 -72 -125.5 -138t-234.5 -72q-234 9 -331.5 153t-94.5 330v993h405z
" />
    <glyph glyph-name="X" unicode="X" horiz-adv-x="1163" 
d="M424 1449l156 -350l159 350h441l-369 -727l367 -722h-441l-157 347l-156 -347h-439l365 722l-365 727h439z" />
    <glyph glyph-name="Y" unicode="Y" horiz-adv-x="1227" 
d="M408 1449l204 -289l205 289h430l-420 -659v-790h-432v790l-417 659h430z" />
    <glyph glyph-name="Z" unicode="Z" horiz-adv-x="1161" 
d="M1149 1449l-492 -1065h473v-384h-1077l492 1062h-516v387h1120z" />
    <glyph glyph-name="bracketleft" unicode="[" horiz-adv-x="567" 
d="M479 1291h-43q-29 -1 -48.5 -27t-20.5 -69v-1104q0 -46 21 -70t67 -25h24v-186h-196q-88 5 -145.5 72.5t-59.5 143.5v1220q2 94 60.5 161.5t144.5 70.5h196v-187z" />
    <glyph glyph-name="backslash" unicode="\" horiz-adv-x="709" 
d="M193 1478l542 -1668h-217l-540 1668h215z" />
    <glyph glyph-name="bracketright" unicode="]" horiz-adv-x="567" 
d="M78 1291v187h196q86 -3 144.5 -70.5t60.5 -161.5v-1220q-2 -76 -59.5 -143.5t-145.5 -72.5h-196v186h24q46 1 67 25t21 70v1104q-1 43 -20.5 69t-48.5 27h-43z" />
    <glyph glyph-name="asciicircum" unicode="^" horiz-adv-x="2040" 
d="M1186 1451l438 -561h-297l-309 309l-307 -309h-299l438 561h336z" />
    <glyph glyph-name="underscore" unicode="_" 
d="M1018 -203v-278h-1018v278h1018z" />
    <glyph glyph-name="quoteleft" unicode="&#x2018;" horiz-adv-x="561" 
d="M31 1199q3 94 46.5 158.5t92.5 109.5l109 105v-146q120 -1 184 -61t65 -170q-2 -103 -71 -174t-176 -74q-111 3 -179.5 76.5t-70.5 175.5z" />
    <glyph glyph-name="a" unicode="a" horiz-adv-x="1208" 
d="M582 1062q235 -2 387 -161t157 -453v-448h-385v501q0 66 -37.5 120.5t-111.5 57.5q-74 -3 -114.5 -49.5t-41.5 -104.5q1 -65 42.5 -107t105.5 -44q16 0 39.5 6t38.5 12v-400l-82 -2q-247 10 -390.5 170t-146.5 361q5 222 154 378t385 163z" />
    <glyph glyph-name="b" unicode="b" horiz-adv-x="1208" 
d="M465 1449v-868q0 -100 38.5 -160t114.5 -62q77 3 115.5 52t38.5 110q-1 59 -41 103.5t-110 46.5q-22 -1 -45 -7.5t-39 -13.5v408q2 0 25.5 2t49.5 2q254 -7 401 -164t150 -383q-3 -216 -148.5 -374.5t-391.5 -167.5q-230 3 -383.5 166.5t-159.5 471.5v838h385z" />
    <glyph glyph-name="c" unicode="c" horiz-adv-x="1171" 
d="M592 1062q211 -6 358.5 -135.5t171.5 -309.5h-395q-18 20 -49 41t-80 23q-72 -1 -116.5 -43t-45.5 -107q2 -66 46 -107t110 -42q76 4 110 50t33 83h398q-9 -256 -171.5 -397.5t-365.5 -144.5q-258 10 -407 172t-152 370q5 220 159 379.5t396 167.5z" />
    <glyph glyph-name="d" unicode="d" horiz-adv-x="1208" 
d="M741 1449h385v-838q-6 -314 -159 -475t-383 -163q-244 9 -390.5 168.5t-150.5 375.5q3 222 150.5 380t396.5 165q26 0 48.5 -2t23.5 -2v-408q-16 7 -35.5 13.5t-40.5 7.5q-69 -3 -110 -50t-42 -104q0 -61 39 -108t115 -50q71 3 111.5 53t41.5 117v920z" />
    <glyph glyph-name="e" unicode="e" horiz-adv-x="1161" 
d="M37 511q4 220 155.5 381.5t397.5 169.5q214 1 373 -147.5t167 -458.5h-577q-26 1 -36.5 28.5t-10.5 65.5q0 41 12 68t41 28h174q1 49 -30.5 83.5t-102.5 35.5q-96 -4 -137.5 -77.5t-40.5 -162.5q0 -99 42.5 -161t123.5 -64q40 1 79 22.5t50 51.5l221 -277
q-46 -39 -132.5 -79.5t-215.5 -44.5q-251 10 -400 170t-153 368z" />
    <glyph glyph-name="f" unicode="f" horiz-adv-x="707" 
d="M715 1140q-13 0 -31 3t-37 3q-50 -2 -79.5 -25.5t-30.5 -48.5v-39h159v-422h-159v-611h-414v611h-105v422h123q1 193 102.5 317t295.5 128q75 -1 114.5 -13t61.5 -22v-303z" />
    <glyph glyph-name="g" unicode="g" horiz-adv-x="1200" 
d="M582 1062q278 -10 411.5 -188t132.5 -410v-424q-2 -209 -157 -370.5t-441 -171.5q-50 1 -94.5 10.5t-85.5 22.5v367q29 -14 69 -24.5t83 -12.5q123 5 182 73t59 147v432q0 61 -40.5 108t-114.5 50q-63 -1 -105.5 -40t-44.5 -100q1 -62 42 -99t104 -38q23 0 46 6.5
t34 12.5v-371q-4 -1 -54.5 -10t-95.5 -10q-236 9 -353.5 158.5t-117.5 330.5q0 201 136.5 370.5t404.5 180.5z" />
    <glyph glyph-name="h" unicode="h" horiz-adv-x="1096" 
d="M465 1449v-477q48 42 95.5 66t121.5 24q136 -2 232 -97t100 -257v-708h-396v560q0 35 -18.5 63.5t-56.5 30.5q-38 -2 -58 -29t-20 -61v-564h-385v1449h385z" />
    <glyph glyph-name="i" unicode="i" horiz-adv-x="547" 
d="M279 1525q78 -2 133 -57t57 -142q-3 -86 -60 -138.5t-137 -53.5q-80 2 -136 57t-58 137q2 84 59 139.5t142 57.5zM465 1033v-1033h-385v1033h385z" />
    <glyph glyph-name="j" unicode="j" horiz-adv-x="586" 
d="M117 1328q2 84 58.5 139.5t141.5 57.5q78 -2 133.5 -57t57.5 -142q-3 -86 -60 -138.5t-137 -53.5q-80 2 -136 57t-58 137zM119 1033h385v-950q-6 -239 -167 -408.5t-412 -178.5q-42 2 -82.5 10t-74.5 15v383q19 -11 46 -20t50 -11q124 5 189 80t66 179v901z" />
    <glyph glyph-name="k" unicode="k" horiz-adv-x="1077" 
d="M465 1449v-750l178 334h399l-190 -362l264 -671h-416l-235 648v-648h-385v1449h385z" />
    <glyph glyph-name="l" unicode="l" horiz-adv-x="547" 
d="M465 1449v-1449h-385v1449h385z" />
    <glyph glyph-name="m" unicode="m" horiz-adv-x="1595" 
d="M465 1062q117 -3 205 -51t127 -111q39 63 127 111t204 51q184 -3 291 -105.5t109 -273.5v-683h-367v548q1 51 -20 83.5t-70 33.5q-44 -1 -68 -31t-24 -82v-552h-365v548q1 51 -20 83.5t-70 33.5q-44 -1 -68 -31t-24 -82v-552h-364v683q2 171 107.5 273.5t289.5 105.5z
" />
    <glyph glyph-name="n" unicode="n" horiz-adv-x="1096" 
d="M547 1062q235 -10 351 -168t116 -346v-548h-396v507q0 64 -18 93.5t-57 29.5q-38 0 -58 -30t-20 -89v-511h-385v478q6 308 141 447t326 137z" />
    <glyph glyph-name="o" unicode="o" horiz-adv-x="1169" 
d="M584 -27q-232 7 -386.5 161.5t-160.5 380.5q4 206 151.5 371.5t389.5 175.5q241 -7 394 -164t158 -383q-5 -227 -157 -381t-389 -161zM584 661q-60 -1 -100 -41.5t-42 -104.5q1 -56 38 -98.5t104 -44.5q65 2 103.5 42.5t39.5 102.5q-1 59 -41.5 100.5t-101.5 43.5z" />
    <glyph glyph-name="p" unicode="p" horiz-adv-x="1208" 
d="M80 417q6 323 160.5 484t384.5 161q239 -7 386.5 -163t151.5 -382q-6 -227 -158 -374t-378 -153l-44 2t-38 0v402q15 -6 36.5 -12.5t45.5 -7.5q66 2 105 44t40 105q-1 62 -41 108t-113 48q-78 -1 -115.5 -60.5t-37.5 -162.5v-958h-385v919z" />
    <glyph glyph-name="q" unicode="q" horiz-adv-x="1208" 
d="M1126 -502h-385v958q0 103 -37.5 162.5t-115.5 60.5q-73 -2 -113 -48t-41 -108q1 -63 40.5 -105t105.5 -44q23 1 44.5 7.5t37.5 12.5v-402q-16 1 -38 0l-44 -2q-226 6 -378.5 153t-158.5 374q4 226 151.5 382t387.5 163q230 0 384 -161t160 -484v-919z" />
    <glyph glyph-name="r" unicode="r" horiz-adv-x="709" 
d="M655 634q-2 1 -21.5 4.5t-39.5 3.5q-56 0 -87 -38.5t-32 -121.5v-482h-395v544q10 286 149.5 404t286.5 114q40 0 76.5 -4.5t62.5 -7.5v-416z" />
    <glyph glyph-name="s" unicode="s" horiz-adv-x="793" 
d="M772 620q-33 1 -57 -5t-45 -26q-37 -37 -44.5 -84t-11.5 -103.5t-27.5 -122t-90.5 -137.5q-70 -69 -165.5 -106t-213.5 -38q-28 1 -54 1.5t-45 0.5v417q58 -1 96.5 6.5t65.5 34.5q31 35 37 89t9 119.5t25.5 135t90.5 135.5q53 52 117.5 74.5t138.5 21.5h174v-413z" />
    <glyph glyph-name="t" unicode="t" horiz-adv-x="709" 
d="M475 1420v-387h172v-438h-172v-64q1 -58 35 -100.5t86 -44.5h51v-417l-78 -2q-181 2 -330.5 142.5t-158.5 411.5v899h395z" />
    <glyph glyph-name="u" unicode="u" horiz-adv-x="1096" 
d="M475 538q-1 -63 16 -98t60 -35q45 0 62 35t16 98v495h385v-528q-1 -216 -119.5 -370t-349.5 -162q-221 8 -342 162t-123 370v528h395v-495z" />
    <glyph glyph-name="v" unicode="v" horiz-adv-x="887" 
d="M946 1033l-504 -1078l-500 1078h390l110 -270l111 270h393z" />
    <glyph glyph-name="w" unicode="w" horiz-adv-x="1595" 
d="M66 1033h366v-534q-1 -59 18.5 -94.5t73.5 -36.5q57 1 75.5 37t16.5 90v538h363v-538q-2 -54 16.5 -90t75.5 -37q54 1 73.5 36.5t18.5 94.5v534h365v-686q-2 -164 -108.5 -267t-293.5 -107q-129 4 -211 53t-116 106q-34 -57 -118.5 -106t-213.5 -53q-186 4 -292.5 107
t-108.5 267v686z" />
    <glyph glyph-name="x" unicode="x" horiz-adv-x="1059" 
d="M457 1033v-229q0 -57 19 -89t59 -32q43 1 59.5 29t15.5 67v254h389v-266q-1 -61 -42 -126t-111 -97q66 -34 109 -94t44 -142v-308h-389v298q0 43 -17 74t-58 33q-44 -2 -61.5 -37t-16.5 -84v-284h-400v286q3 100 50 166.5t104 91.5q-62 29 -107 95t-47 161v233h400z" />
    <glyph glyph-name="y" unicode="y" horiz-adv-x="1096" 
d="M475 1033v-489q0 -76 18 -109.5t60 -32.5q41 2 58.5 30.5t17.5 53.5v547h385v-960q-2 -210 -165.5 -387.5t-457.5 -189.5q-47 2 -85.5 10t-67.5 15v352q22 -11 54 -20.5t58 -10.5q141 5 209 79t68 164q-38 -39 -88 -62t-125 -25q-138 2 -234 99t-100 267v669h395z" />
    <glyph glyph-name="z" unicode="z" horiz-adv-x="1096" 
d="M1020 1033l-356 -651h393v-382h-1018l354 652h-354v381h981z" />
    <glyph glyph-name="braceleft" unicode="{" 
d="M899 1185h-76q-55 0 -84.5 -30.5t-29.5 -86.5v-334q1 -82 -49.5 -137t-170.5 -74q110 -16 165 -67.5t55 -139.5v-332q0 -58 30 -87t86 -30h74v-281h-143q-199 0 -287 60.5t-86 199.5v323q2 109 -44 162t-161 53h-35v281h54q105 3 146.5 59.5t39.5 132.5v350
q-4 122 73 189.5t283 68.5h160v-280z" />
    <glyph glyph-name="bar" unicode="|" 
d="M647 1553v-2034h-276v2034h276z" />
    <glyph glyph-name="braceright" unicode="}" 
d="M121 1465h160q206 -1 283 -68.5t73 -189.5v-350q-2 -76 39.5 -132.5t146.5 -59.5h54v-281h-35q-115 0 -161 -53t-44 -162v-323q2 -139 -86.5 -199.5t-286.5 -60.5h-143v281h74q56 1 86 30t30 87v332q0 88 55 139.5t164 67.5q-119 19 -169.5 74t-49.5 137v334
q0 56 -29.5 86.5t-84.5 30.5h-76v280z" />
    <glyph glyph-name="asciitilde" unicode="~" horiz-adv-x="2040" 
d="M760 1412q98 0 168.5 -32.5t123 -76.5t100.5 -78t105 -36q59 2 91 45t32 100v78h262v-67q-3 -194 -105 -305t-269 -113q-101 2 -171.5 35.5t-124.5 77.5t-102.5 77t-101.5 33q-69 -4 -96.5 -59.5t-26.5 -114.5v-49h-262v76q3 178 105 291.5t272 117.5z" />
    <glyph glyph-name="approxequal" unicode="&#x2248;" horiz-adv-x="1700" 
d="M178 605v297q74 51 180.5 94.5t223.5 46.5q84 0 160.5 -18t147.5 -44t136.5 -45t126.5 -22q109 3 203 48t166 102v-295q-60 -45 -158 -88.5t-203 -46.5q-78 2 -148.5 21.5t-140 45t-143.5 44t-158 18.5q-115 -3 -215 -50.5t-178 -107.5zM1161 171q-78 2 -148.5 21.5
t-140 45t-143.5 44t-158 18.5q-115 -3 -215 -50.5t-178 -107.5v297q74 51 180.5 95t223.5 47q84 0 160.5 -18.5t147.5 -44t136.5 -45t126.5 -21.5q109 3 203 47.5t166 101.5v-295q-60 -45 -158 -88.5t-203 -46.5z" />
    <glyph glyph-name="radical" unicode="&#x221a;" horiz-adv-x="1391" 
d="M1393 1553h-86l-586 -1594h-141l-299 820l-156 -59l-41 151l391 138l209 -600l485 1314h224v-170z" />
    <glyph glyph-name="twosuperior" unicode="&#xb2;" horiz-adv-x="741" 
d="M373 1463q138 -3 235 -83.5t101 -206.5q3 -61 -30.5 -125.5t-133.5 -223.5h162v-247h-623q115 178 186.5 284.5t108.5 163.5t50 86t13 47q1 29 -18.5 50t-65.5 22q-43 -1 -64.5 -24t-21.5 -52q0 -17 9.5 -34t23.5 -21l-123 -191q-67 30 -114.5 89.5t-49.5 154.5
q3 136 101.5 222t253.5 89z" />
    <glyph glyph-name="threesuperior" unicode="&#xb3;" horiz-adv-x="741" 
d="M670 1447l-181 -340q81 -21 129.5 -83t49.5 -161q-2 -142 -110.5 -222t-293.5 -81q-55 1 -97.5 9.5t-74.5 15.5v250q30 -15 69 -25t75 -10q62 1 100 28.5t39 73.5q-1 53 -44 82t-110 29q-19 0 -43 -3.5t-26 -4.5l112 194h-172v248h578z" />
    <glyph glyph-name="dotlessi" unicode="&#x131;" horiz-adv-x="547" 
d="M465 1033v-1033h-385v1033h385z" />
    <glyph glyph-name="registered" unicode="&#xae;" horiz-adv-x="1700" 
d="M852 1482q330 -9 534.5 -225t210.5 -525q-12 -340 -233 -538.5t-514 -203.5q-340 13 -541.5 237t-206.5 501q3 282 201 511t549 243zM852 1330q-279 -10 -436 -189t-160 -409q4 -231 164.5 -408t429.5 -186q250 5 419.5 169.5t176.5 424.5q-5 249 -168 420t-426 178z
M870 1154q178 -3 261.5 -70t82.5 -165q-1 -86 -46 -140.5t-121 -79.5l178 -352h-275l-143 311h-27v-311h-254v807h344zM834 996h-54v-192h66q52 1 79 27t27 71t-29.5 69.5t-88.5 24.5z" />
    <glyph glyph-name="copyright" unicode="&#xa9;" horiz-adv-x="1700" 
d="M852 1482q330 -9 534.5 -225t210.5 -525q-12 -340 -233 -538.5t-514 -203.5q-340 13 -541.5 237t-206.5 501q3 282 201 511t549 243zM852 1330q-279 -10 -436 -189t-160 -409q4 -231 164.5 -408t429.5 -186q250 5 419.5 169.5t176.5 424.5q-5 249 -168 420t-426 178z
M983 873q0 57 -32 95t-91 39q-86 -2 -124.5 -76.5t-37.5 -196.5q-1 -118 36 -188t128 -72q62 1 94.5 40.5t32.5 102.5h244q-1 -126 -94.5 -221t-272.5 -100q-231 6 -330 132t-96 304q-1 171 100 301t314 137q165 -3 265.5 -86t103.5 -211h-240z" />
    <glyph glyph-name="dagger" unicode="&#x2020;" horiz-adv-x="756" 
d="M727 1146v-281h-180v-865h-338v865h-180v281h180v303h338v-303h180z" />
    <glyph glyph-name="trademark" unicode="&#x2122;" horiz-adv-x="1700" 
d="M686 1308h-162v-406h-198v406h-162v147h522v-147zM1491 902h-180v367l-137 -367h-68l-139 367v-367h-181v553h254l101 -268l98 268h252v-553z" />
    <glyph glyph-name="brokenbar" unicode="&#xa6;" 
d="M647 1420v-753h-276v753h276zM647 400v-750h-276v750h276z" />
    <glyph glyph-name="cedilla" unicode="&#xb8;" 
d="M373 -94h272l-121 -275h-233z" />
    <glyph glyph-name="onesuperior" unicode="&#xb9;" horiz-adv-x="741" 
d="M512 1447v-870h-285v870h285z" />
    <glyph glyph-name="multiply" unicode="&#xd7;" horiz-adv-x="1700" 
d="M446 1220l424 -428l428 426l189 -189l-426 -426l426 -426l-191 -187l-424 421l-426 -421l-190 187l426 426l-426 426z" />
    <glyph glyph-name="quotesingle" unicode="'" horiz-adv-x="391" 
d="M322 1429v-560h-254v560h254z" />
    <glyph glyph-name="perthousand" unicode="&#x2030;" horiz-adv-x="2007" 
d="M23 1179q4 122 88 203.5t200 84.5q128 -5 208.5 -90.5t82.5 -195.5q-2 -111 -81 -199.5t-204 -93.5q-121 3 -205.5 85t-88.5 206zM197 1179q1 -47 32.5 -80t79.5 -35q53 1 85.5 34t33.5 81q-2 46 -36 79t-81 35q-47 -2 -80 -35.5t-34 -78.5zM1139 267q-2 47 -36.5 80
t-80.5 35q-47 -2 -80.5 -36t-34.5 -79q1 -46 32.5 -79t80.5 -35q53 1 85.5 34t33.5 80zM1313 269q-2 -111 -81 -197t-204 -92q-122 4 -206.5 83.5t-88.5 203.5q4 123 88.5 204.5t200.5 84.5q128 -5 208.5 -90.5t82.5 -196.5zM1808 267q-2 47 -36 80t-80 35q-48 -2 -81 -36
t-34 -79q1 -46 32.5 -79t80.5 -35q53 1 85 34t33 80zM1982 269q-2 -111 -80.5 -197t-203.5 -92q-122 4 -206.5 83.5t-88.5 203.5q4 123 88.5 204.5t200.5 84.5q128 -5 208 -90.5t82 -196.5zM477 -2h-209l590 1451h207z" />
    <glyph glyph-name="OE" unicode="&#x152;" horiz-adv-x="2011" 
d="M807 1478q128 -2 246 -45t202 -103q38 38 126 77t202 42h354v-422h-262q-57 1 -79 -16t-21 -58q1 -30 19 -48t40 -19h285v-324h-309q-37 0 -55.5 -17.5t-18.5 -51.5q-1 -41 23.5 -58t89.5 -16h288v-419h-362q-97 1 -184.5 33t-137.5 81q-87 -63 -207 -101t-241 -40
q-353 13 -553.5 236t-204.5 515q9 318 225.5 532t534.5 222zM803 1054q-142 -4 -235.5 -100t-96.5 -234q2 -132 94 -227.5t244 -100.5q132 3 226 94t98 238q-4 144 -98.5 235.5t-231.5 94.5z" />
    <glyph glyph-name="oe" unicode="&#x153;" horiz-adv-x="1870" 
d="M584 -27q-243 10 -393 168.5t-154 365.5q3 207 149 376t398 179q103 -1 198.5 -38.5t157.5 -98.5q54 54 146.5 94.5t205.5 42.5q236 -1 389 -156.5t158 -451.5h-571q-36 -2 -52 16t-16 78q0 57 16.5 77t55.5 19h170q0 38 -32 73t-97 38q-97 -3 -147 -69.5t-50 -164.5
q1 -94 50.5 -152.5t142.5 -60.5q46 1 74.5 19.5t41.5 42.5l222 -273q-28 -29 -122.5 -73.5t-221.5 -50.5q-159 6 -251 55t-114 75q-45 -47 -135.5 -86.5t-218.5 -43.5zM584 656q-56 -1 -98 -39.5t-44 -101.5q1 -59 38 -100t104 -43q63 1 102.5 40.5t40.5 100.5
q-2 60 -42.5 100.5t-100.5 42.5z" />
    <glyph glyph-name="emdash" unicode="&#x2014;" horiz-adv-x="2040" 
d="M0 665h2038v-291h-2038v291z" />
    <glyph glyph-name="endash" unicode="&#x2013;" 
d="M1018 665v-291h-1018v291h1018z" />
    <glyph glyph-name="ellipsis" unicode="&#x2026;" horiz-adv-x="2038" 
d="M588 214q-2 -101 -71.5 -169t-176.5 -72q-107 4 -177 72t-73 169q3 104 73 177.5t177 76.5q107 -3 176.5 -76.5t71.5 -177.5zM1268 214q-2 -101 -71.5 -169t-176.5 -72q-107 4 -177 72t-73 169q3 104 73 177.5t177 76.5q107 -3 176.5 -76.5t71.5 -177.5zM1946 214
q-2 -101 -71.5 -169t-176.5 -72q-107 4 -177 72t-73 169q3 104 73 177.5t177 76.5q107 -3 176.5 -76.5t71.5 -177.5z" />
    <glyph glyph-name="daggerdbl" unicode="&#x2021;" horiz-adv-x="756" 
d="M547 1449v-256h180v-262h-180v-414h180v-262h-180v-255h-338v255h-180v262h180v414h-180v262h180v256h338z" />
    <glyph glyph-name="quotedblbase" unicode="&#x201e;" horiz-adv-x="1124" 
d="M31 212q4 117 80 185t174 69q109 -4 175 -79t68 -177q-3 -99 -49 -161.5t-92 -105.5l-106 -99v146q-134 4 -192.5 69t-57.5 153zM1092 210q-3 -99 -49 -161.5t-93 -105.5l-106 -99v146q-134 4 -192.5 69t-57.5 153q4 117 80 185t174 69q109 -4 175.5 -79t68.5 -177z" />
    <glyph glyph-name="quotedblleft" unicode="&#x201c;" horiz-adv-x="1124" 
d="M1092 1201q-4 -116 -80 -184t-174 -70q-110 4 -176 79t-68 177q3 99 49 163.5t92 107.5l107 98v-146q134 -3 192.5 -70t57.5 -155zM172 1474l107 98v-146q134 -3 192 -70t57 -155q-4 -116 -80 -184t-174 -70q-109 4 -175 79t-68 177q3 99 49 163.5t92 107.5z" />
    <glyph glyph-name="quotedblright" unicode="&#x201d;" horiz-adv-x="1124" 
d="M31 1224q4 116 80 184t174 70q109 -4 175 -79t68 -177q-3 -99 -49 -163.5t-92 -107.5l-106 -98v145q-134 4 -192.5 71t-57.5 155zM1092 1222q-3 -99 -49 -163.5t-93 -107.5l-106 -98v145q-134 4 -192.5 71t-57.5 155q4 116 80 184t174 70q109 -4 175.5 -79t68.5 -177z
" />
    <glyph glyph-name="Agrave" unicode="&#xc0;" horiz-adv-x="1255" 
d="M104 833q1 282 135 460.5t396 184.5q239 -7 375 -180.5t139 -432.5v-865h-422v896q2 47 -16 91.5t-76 47.5q-49 -3 -69 -39t-19 -71v-203h112v-385h-112v-337h-443v833zM680 1789l141 -234h-250l-237 234h346z" />
    <glyph glyph-name="Acircumflex" unicode="&#xc2;" horiz-adv-x="1255" 
d="M635 1478q239 -7 375 -180.5t139 -432.5v-865h-422v896q2 47 -16 91.5t-76 47.5q-49 -3 -69 -39t-19 -71v-203h112v-385h-112v-337h-443v833q1 282 135 460.5t396 184.5zM553 1555h-254l141 234h377l141 -234h-253l-76 134z" />
    <glyph glyph-name="Egrave" unicode="&#xc8;" horiz-adv-x="973" 
d="M631 886h250v-324h-297q-43 1 -64.5 -15.5t-21.5 -55.5q0 -33 18.5 -52.5t58.5 -19.5h324v-419h-362q-205 6 -327.5 121.5t-125.5 268.5v567q6 272 144 384t339 108h332v-422h-283q-42 0 -60 -18t-17 -54q-1 -36 20.5 -52.5t71.5 -16.5zM276 1789h347l141 -234h-250z" />
    <glyph glyph-name="Ecircumflex" unicode="&#xca;" horiz-adv-x="973" 
d="M631 886h250v-324h-297q-43 1 -64.5 -15.5t-21.5 -55.5q0 -33 18.5 -52.5t58.5 -19.5h324v-419h-362q-205 6 -327.5 121.5t-125.5 268.5v567q6 272 144 384t339 108h332v-422h-283q-42 0 -60 -18t-17 -54q-1 -36 20.5 -52.5t71.5 -16.5zM383 1789h377l141 -234h-254
l-76 134l-75 -134h-254z" />
    <glyph glyph-name="Edieresis" unicode="&#xcb;" horiz-adv-x="973" 
d="M881 886v-324h-297q-43 1 -64.5 -15.5t-21.5 -55.5q0 -33 18.5 -52.5t58.5 -19.5h324v-419h-362q-205 6 -327.5 121.5t-125.5 268.5v567q6 272 144 384t339 108h332v-422h-283q-42 0 -60 -18t-17 -54q-1 -36 20.5 -52.5t71.5 -16.5h250zM205 1713q1 57 43 107t117 53
q70 -2 113 -49t44 -111q-1 -64 -44.5 -111t-112.5 -49q-74 3 -116.5 51.5t-43.5 108.5zM780 1553q-73 3 -115.5 51.5t-43.5 108.5q1 57 43 107t116 53q70 -2 113.5 -49t44.5 -111q-1 -64 -45 -111t-113 -49z" />
    <glyph glyph-name="Icircumflex" unicode="&#xce;" horiz-adv-x="643" 
d="M104 0v1449h433v-1449h-433zM246 1555h-251l138 234h377l141 -234h-254l-75 134z" />
    <glyph glyph-name="Idieresis" unicode="&#xcf;" horiz-adv-x="643" 
d="M537 0h-433v1449h433v-1449zM115 1873q65 -2 110 -46.5t47 -113.5q-2 -69 -47.5 -113.5t-109.5 -46.5q-68 2 -111 48.5t-46 111.5q2 60 43.5 108.5t113.5 51.5zM530 1553q-68 2 -112.5 48.5t-46.5 111.5q1 60 44 108.5t115 51.5q65 -2 110.5 -46.5t47.5 -113.5
q-2 -69 -48 -113.5t-110 -46.5z" />
    <glyph glyph-name="acute" unicode="&#xb4;" 
d="M457 1373h346l-238 -233h-250z" />
    <glyph glyph-name="grave" unicode="`" 
d="M561 1373l141 -233h-249l-238 233h346z" />
    <glyph glyph-name="circumflex" unicode="&#x2c6;" 
d="M510 1273l-76 -133h-254l142 233h376l142 -233h-254z" />
    <glyph glyph-name="dieresis" unicode="&#xa8;" 
d="M143 1297q1 60 44.5 108.5t115.5 51.5q65 -1 110.5 -45.5t47.5 -114.5q-2 -69 -48 -113t-110 -46q-68 2 -113 48t-47 111zM877 1297q-2 -69 -48 -113t-110 -46q-68 2 -113 48t-47 111q1 60 44.5 108.5t115.5 51.5q65 -1 110.5 -45.5t47.5 -114.5z" />
    <glyph glyph-name="tilde" unicode="&#x2dc;" 
d="M725 1373l88 -141q-33 -33 -88.5 -57t-120.5 -25q-63 2 -120.5 14.5t-92.5 14.5q-28 0 -53 -8t-45 -17l-88 139q39 40 96 63t121 23q62 -2 115 -16t98 -16q21 0 46.5 7.5t43.5 18.5z" />
    <glyph glyph-name="Ugrave" unicode="&#xd9;" horiz-adv-x="1219" 
d="M94 1449h424v-893q1 -85 28 -116t68 -29q38 1 60.5 28.5t23.5 75.5v934h424v-866q-6 -287 -151 -446.5t-363 -163.5q-189 -2 -346.5 147.5t-167.5 488.5v840zM313 1789h346l142 -234h-250z" />
    <glyph glyph-name="Ucircumflex" unicode="&#xdb;" horiz-adv-x="1219" 
d="M94 1449h424v-893q1 -85 28 -116t68 -29q38 1 60.5 28.5t23.5 75.5v934h424v-866q-6 -287 -151 -446.5t-363 -163.5q-189 -2 -346.5 147.5t-167.5 488.5v840zM532 1555h-253l141 234h377l141 -234h-254l-76 134z" />
    <glyph glyph-name="overscore" unicode="&#xaf;" 
d="M1018 1551v-278h-1018v278h1018z" />
    <glyph glyph-name="Yacute" unicode="&#xdd;" horiz-adv-x="1227" 
d="M-22 1449h430l204 -289l205 289h430l-420 -659v-790h-432v790zM563 1789h344l-237 -234h-250z" />
    <glyph glyph-name="yacute" unicode="&#xfd;" horiz-adv-x="1096" 
d="M80 1033h395v-489q0 -76 18 -109.5t60 -32.5q41 2 58.5 30.5t17.5 53.5v547h385v-960q-2 -210 -165.5 -387.5t-457.5 -189.5q-43 2 -83.5 10t-69.5 15v352q22 -11 54 -20.5t58 -10.5q141 5 209 79t68 164q-38 -39 -88 -62t-125 -25q-138 2 -234 99t-100 267v669z
M496 1373h344l-238 -233h-248z" />
    <glyph glyph-name="degree" unicode="&#xb0;" horiz-adv-x="670" 
d="M14 1134q3 135 92.5 228t227.5 97q138 -4 227 -96.5t92 -226.5q-2 -121 -86 -217t-231 -101q-140 4 -229.5 95.5t-92.5 220.5zM332 1291q-64 -2 -106 -47.5t-44 -107.5q2 -61 44 -104.5t106 -45.5q71 2 111.5 47t41.5 107q-1 65 -44 107t-109 44z" />
    <glyph glyph-name="Ccedilla" unicode="&#xc7;" horiz-adv-x="1606" 
d="M49 722q10 328 229.5 538.5t532.5 217.5q303 -8 498.5 -190.5t236.5 -436.5l-444 -29q-37 87 -109.5 145t-175.5 60q-135 -5 -221.5 -96.5t-89.5 -206.5q2 -120 86 -209t233 -94q127 3 202.5 88t88.5 213h443q-6 -305 -210 -521.5t-538 -227.5q-346 12 -551.5 231
t-210.5 518zM938 -94l-121 -275h-233l80 275h274z" />
    <glyph glyph-name="ccedilla" unicode="&#xe7;" horiz-adv-x="1171" 
d="M592 1062q211 -6 358.5 -135.5t171.5 -309.5h-395q-18 20 -49 41t-80 23q-72 -1 -116.5 -43t-45.5 -107q2 -66 46 -107t110 -42q76 4 110 50t33 83h398q-9 -256 -171.5 -397.5t-365.5 -144.5q-258 10 -407 172t-152 370q5 220 159 379.5t396 167.5zM719 -94l-121 -275
h-233l79 275h275z" />
    <glyph glyph-name="Ntilde" unicode="&#xd1;" horiz-adv-x="1219" 
d="M604 1478q255 -14 381.5 -198t126.5 -372v-908h-424v876q1 83 -18.5 120.5t-69.5 36.5q-44 1 -63 -33t-19 -108v-892h-424v876q2 231 135.5 411.5t374.5 190.5zM733 1762q21 0 46.5 8t43.5 19l88 -141q-33 -33 -88.5 -57t-120.5 -25q-62 2 -119.5 14t-93.5 14
q-27 0 -52.5 -7.5t-45.5 -16.5l-88 139q39 39 96 62t121 24q62 -2 115.5 -16.5t97.5 -16.5z" />
    <glyph glyph-name="ntilde" unicode="&#xf1;" horiz-adv-x="1096" 
d="M1014 548v-548h-396v507q0 64 -18 93.5t-57 29.5q-38 0 -58 -30t-20 -89v-511h-385v478q6 308 141 447t326 137q235 -10 351 -168t116 -346zM672 1347q21 0 46.5 7.5t43.5 18.5l88 -141q-33 -33 -88.5 -57t-120.5 -25q-63 2 -120.5 14.5t-92.5 14.5q-28 0 -53 -8t-45 -17
l-88 139q39 40 96 63t121 23q62 -2 115 -16t98 -16z" />
    <glyph glyph-name="exclamdown" unicode="&#xa1;" horiz-adv-x="567" 
d="M471 921l14 -921h-405l14 921h377zM285 1478q100 -3 162.5 -70t64.5 -158q-1 -84 -61.5 -152.5t-167.5 -72.5q-101 4 -162.5 70.5t-63.5 154.5q1 90 61.5 157.5t166.5 70.5z" />
    <glyph glyph-name="questiondown" unicode="&#xbf;" horiz-adv-x="1010" 
d="M510 -27q-205 4 -332 130.5t-131 335.5q2 108 30.5 178t65.5 105q61 48 126.5 65t70.5 86v60h383v-103q-18 -278 -145.5 -286t-145.5 -107q0 -34 22.5 -66t73.5 -34q52 0 77.5 38t25.5 109h366q-6 -267 -146 -389.5t-341 -121.5zM535 1025q-101 3 -161.5 69t-62.5 158
q3 97 67.5 160.5t158.5 65.5q100 -3 161.5 -69.5t63.5 -158.5q-2 -88 -63 -154.5t-164 -70.5z" />
    <glyph glyph-name="currency" unicode="&#xa4;" horiz-adv-x="1237" 
d="M383 1240q27 26 91.5 47.5t143.5 22.5q89 -1 149.5 -23t84.5 -47l201 201l133 -133l-201 -205q31 -34 48.5 -98.5t17.5 -126.5q-1 -77 -20 -139.5t-46 -90.5l201 -203l-133 -135l-201 203q-25 -26 -85 -47.5t-153 -22.5q-81 1 -141.5 22t-87.5 48l-203 -203l-135 135
l203 203q-24 25 -44.5 89.5t-21.5 140.5q1 63 20 129t46 96l-201 205l133 133zM623 1117q-105 -3 -174 -74t-72 -170q2 -90 67 -162.5t170 -76.5q116 4 180.5 77.5t65.5 164.5q-4 106 -74.5 172.5t-162.5 68.5z" />
    <glyph glyph-name="sterling" unicode="&#xa3;" horiz-adv-x="1124" 
d="M799 1146q-3 1 -33 7t-55 7q-50 -1 -72 -31.5t-21 -82.5v-50h181v-366h-181v-223h416v-407h-829v630h-96v366h114q3 253 111.5 368.5t288.5 113.5q64 0 103 -10.5t73 -24.5v-297z" />
    <glyph glyph-name="yen" unicode="&#xa5;" horiz-adv-x="1233" 
d="M410 1449l204 -367l205 367h400l-289 -455h241v-157h-346l-28 -47v-105h374v-158h-374v-527h-367v527h-387v158h387v98l-31 54h-356v157h260l-291 455h398z" />
    <glyph glyph-name="section" unicode="&#xa7;" 
d="M788 1400v-344q-18 17 -45.5 35t-64.5 20q-24 0 -39 -13t-16 -38l10 -47q125 -47 204 -147.5t81 -248.5q-3 -111 -52 -194t-110 -123q11 -23 22.5 -54.5t12.5 -72.5q-6 -195 -110.5 -296t-236.5 -102q-74 3 -137 29.5t-86 48.5v345q20 -20 50.5 -38.5t62.5 -19.5
q25 0 39 12t14 35q0 13 -3 30.5t-3 19.5q-111 35 -193 139.5t-86 247.5q5 125 59 203.5t99 117.5q-16 18 -27 63t-12 87q4 166 101.5 272.5t240.5 110.5q72 -1 129 -23.5t96 -54.5zM522 751q-55 -3 -87.5 -41t-33.5 -82q1 -41 32 -78.5t87 -40.5q57 2 89 39t32 84
q-1 44 -32.5 80.5t-86.5 38.5z" />
    <glyph glyph-name="florin" unicode="&#x192;" horiz-adv-x="1124" 
d="M1018 1119q-2 1 -27 9.5t-49 9.5q-76 1 -113 -55t-43 -187h142l-51 -412h-138q-52 -464 -90.5 -635t-113.5 -236q-41 -42 -113.5 -77t-192.5 -38q-77 2 -120.5 15.5t-71.5 25.5l37 316q3 0 28.5 -7.5t44.5 -9.5q28 1 55 8.5t48 26.5q16 18 27.5 49t21.5 92t23.5 174.5
t37.5 295.5h-149l53 412h144q13 286 122.5 433.5t339.5 148.5q64 -1 108.5 -13t78.5 -26z" />
    <glyph glyph-name="cent" unicode="&#xa2;" horiz-adv-x="1124" 
d="M842 1175v-306q-2 1 -31 9.5t-55 9.5q-70 -2 -119 -51.5t-51 -122.5q1 -70 48.5 -122.5t125.5 -55.5q25 1 52.5 8t29.5 8v-315q-29 -9 -67.5 -16.5t-92.5 -8.5v-212h-197v243q-148 41 -239 166t-94 295q7 195 111.5 312t221.5 152v281h197v-254h78z" />
    <glyph glyph-name="acircumflex" unicode="&#xe2;" horiz-adv-x="1208" 
d="M582 1062q235 -2 387 -161t157 -453v-448h-385v501q0 66 -37.5 120.5t-111.5 57.5q-74 -3 -114.5 -49.5t-41.5 -104.5q1 -65 42.5 -107t105.5 -44q16 0 39.5 6t38.5 12v-400l-82 -2q-247 10 -390.5 170t-146.5 361q5 222 154 378t385 163zM528 1140h-254l142 233h377
l141 -233h-254l-76 133z" />
    <glyph glyph-name="ecircumflex" unicode="&#xea;" horiz-adv-x="1161" 
d="M590 1062q214 1 373 -147.5t167 -458.5h-577q-26 1 -36.5 28.5t-10.5 65.5q0 41 12 68t41 28h174q1 49 -30.5 83.5t-102.5 35.5q-96 -4 -137.5 -77.5t-40.5 -162.5q0 -99 42.5 -161t123.5 -64q40 1 79 22.5t50 51.5l221 -277q-46 -39 -132.5 -79.5t-215.5 -44.5
q-251 10 -400 170t-153 368q4 220 155.5 381.5t397.5 169.5zM504 1140h-254l141 233h377l141 -233h-254l-75 133z" />
    <glyph glyph-name="ocircumflex" unicode="&#xf4;" horiz-adv-x="1169" 
d="M584 -27q-232 7 -386.5 161.5t-160.5 380.5q4 206 151.5 371.5t389.5 175.5q241 -7 394 -164t158 -383q-5 -227 -157 -381t-389 -161zM442 515q1 -56 38 -98.5t104 -44.5q65 2 103.5 42.5t39.5 102.5q-1 59 -41.5 100.5t-101.5 43.5q-60 -1 -100 -41.5t-42 -104.5z
M508 1140h-254l141 233h377l141 -233h-254l-75 133z" />
    <glyph glyph-name="ucircumflex" unicode="&#xfb;" horiz-adv-x="1096" 
d="M475 538q-1 -63 16 -98t60 -35q45 0 62 35t16 98v495h385v-528q-1 -216 -119.5 -370t-349.5 -162q-221 8 -342 162t-123 370v528h395v-495zM471 1140h-254l141 233h377l142 -233h-254l-76 133z" />
    <glyph glyph-name="aacute" unicode="&#xe1;" horiz-adv-x="1208" 
d="M582 1062q235 -2 387 -161t157 -453v-448h-385v501q0 66 -37.5 120.5t-111.5 57.5q-74 -3 -114.5 -49.5t-41.5 -104.5q1 -65 42.5 -107t105.5 -44q16 0 39.5 6t38.5 12v-400l-82 -2q-247 10 -390.5 170t-146.5 361q5 222 154 378t385 163zM897 1373l-238 -233h-249
l141 233h346z" />
    <glyph glyph-name="eacute" unicode="&#xe9;" horiz-adv-x="1161" 
d="M635 1140h-250l141 233h346zM590 1062q214 1 373 -147.5t167 -458.5h-577q-26 1 -36.5 28.5t-10.5 65.5q0 41 12 68t41 28h174q1 49 -30.5 83.5t-102.5 35.5q-96 -4 -137.5 -77.5t-40.5 -162.5q0 -99 42.5 -161t123.5 -64q40 1 79 22.5t50 51.5l221 -277
q-46 -39 -132.5 -79.5t-215.5 -44.5q-251 10 -400 170t-153 368q4 220 155.5 381.5t397.5 169.5z" />
    <glyph glyph-name="oacute" unicode="&#xf3;" horiz-adv-x="1169" 
d="M584 -27q-232 7 -386.5 161.5t-160.5 380.5q4 206 151.5 371.5t389.5 175.5q241 -7 394 -164t158 -383q-5 -227 -157 -381t-389 -161zM442 515q1 -56 38 -98.5t104 -44.5q65 2 103.5 42.5t39.5 102.5q-1 59 -41.5 100.5t-101.5 43.5q-60 -1 -100 -41.5t-42 -104.5z
M877 1373l-238 -233h-250l141 233h347z" />
    <glyph glyph-name="uacute" unicode="&#xfa;" horiz-adv-x="1096" 
d="M551 405q45 0 62 35t16 98v495h385v-528q-1 -216 -119.5 -370t-349.5 -162q-221 8 -342 162t-123 370v528h395v-495q-1 -63 16 -98t60 -35zM840 1373l-238 -233h-250l142 233h346z" />
    <glyph glyph-name="agrave" unicode="&#xe0;" horiz-adv-x="1208" 
d="M43 521q5 222 154 378t385 163q235 -2 387 -161t157 -453v-448h-385v501q0 66 -37.5 120.5t-111.5 57.5q-74 -3 -114.5 -49.5t-41.5 -104.5q1 -65 42.5 -107t105.5 -44q16 0 39.5 6t38.5 12v-400l-82 -2q-247 10 -390.5 170t-146.5 361zM309 1373h346l142 -233h-250z" />
    <glyph glyph-name="egrave" unicode="&#xe8;" horiz-adv-x="1161" 
d="M590 1062q214 1 373 -147.5t167 -458.5h-577q-26 1 -36.5 28.5t-10.5 65.5q0 41 12 68t41 28h174q1 49 -30.5 83.5t-102.5 35.5q-96 -4 -137.5 -77.5t-40.5 -162.5q0 -99 42.5 -161t123.5 -64q40 1 79 22.5t50 51.5l221 -277q-46 -39 -132.5 -79.5t-215.5 -44.5
q-251 10 -400 170t-153 368q4 220 155.5 381.5t397.5 169.5zM285 1373h346l141 -233h-250z" />
    <glyph glyph-name="ograve" unicode="&#xf2;" horiz-adv-x="1169" 
d="M584 -27q-232 7 -386.5 161.5t-160.5 380.5q4 206 151.5 371.5t389.5 175.5q241 -7 394 -164t158 -383q-5 -227 -157 -381t-389 -161zM442 515q1 -56 38 -98.5t104 -44.5q65 2 103.5 42.5t39.5 102.5q-1 59 -41.5 100.5t-101.5 43.5q-60 -1 -100 -41.5t-42 -104.5z
M289 1373h346l141 -233h-250z" />
    <glyph glyph-name="ugrave" unicode="&#xf9;" horiz-adv-x="1096" 
d="M475 538q-1 -63 16 -98t60 -35q45 0 62 35t16 98v495h385v-528q-1 -216 -119.5 -370t-349.5 -162q-221 8 -342 162t-123 370v528h395v-495zM252 1373h346l141 -233h-250z" />
    <glyph glyph-name="adieresis" unicode="&#xe4;" horiz-adv-x="1208" 
d="M43 521q5 222 154 378t385 163q235 -2 387 -161t157 -453v-448h-385v501q0 66 -37.5 120.5t-111.5 57.5q-74 -3 -114.5 -49.5t-41.5 -104.5q1 -65 42.5 -107t105.5 -44q16 0 39.5 6t38.5 12v-400l-82 -2q-247 10 -390.5 170t-146.5 361zM397 1457q65 -1 110.5 -45.5
t47.5 -114.5q-2 -69 -48 -113t-110 -46q-68 2 -112.5 48t-46.5 111q1 60 44 108.5t115 51.5zM813 1138q-68 2 -113 48t-47 111q1 60 44.5 108.5t115.5 51.5q65 -1 110.5 -45.5t47.5 -114.5q-2 -69 -48 -113t-110 -46z" />
    <glyph glyph-name="edieresis" unicode="&#xeb;" horiz-adv-x="1161" 
d="M37 511q4 220 155.5 381.5t397.5 169.5q214 1 373 -147.5t167 -458.5h-577q-26 1 -36.5 28.5t-10.5 65.5q0 41 12 68t41 28h174q1 49 -30.5 83.5t-102.5 35.5q-96 -4 -137.5 -77.5t-40.5 -162.5q0 -99 42.5 -161t123.5 -64q40 1 79 22.5t50 51.5l221 -277
q-46 -39 -132.5 -79.5t-215.5 -44.5q-251 10 -400 170t-153 368zM373 1457q65 -1 110 -45.5t47 -114.5q-2 -69 -47.5 -113t-109.5 -46q-68 2 -113 48t-47 111q1 60 44.5 108.5t115.5 51.5zM788 1138q-68 2 -112.5 48t-46.5 111q1 60 44 108.5t115 51.5q65 -1 110.5 -45.5
t47.5 -114.5q-2 -69 -48 -113t-110 -46z" />
    <glyph glyph-name="odieresis" unicode="&#xf6;" horiz-adv-x="1169" 
d="M584 -27q-232 7 -386.5 161.5t-160.5 380.5q4 206 151.5 371.5t389.5 175.5q241 -7 394 -164t158 -383q-5 -227 -157 -381t-389 -161zM442 515q1 -56 38 -98.5t104 -44.5q65 2 103.5 42.5t39.5 102.5q-1 59 -41.5 100.5t-101.5 43.5q-60 -1 -100 -41.5t-42 -104.5z
M217 1297q1 60 44.5 108.5t115.5 51.5q65 -1 110.5 -45.5t47.5 -114.5q-2 -69 -48 -113t-110 -46q-68 2 -113 48t-47 111zM793 1138q-68 2 -113 48t-47 111q1 60 44.5 108.5t115.5 51.5q65 -1 110 -45.5t47 -114.5q-2 -69 -48 -113t-109 -46z" />
    <glyph glyph-name="udieresis" unicode="&#xfc;" horiz-adv-x="1096" 
d="M551 405q45 0 62 35t16 98v495h385v-528q-1 -216 -119.5 -370t-349.5 -162q-221 8 -342 162t-123 370v528h395v-495q-1 -63 16 -98t60 -35zM340 1457q65 -1 110.5 -45.5t47.5 -114.5q-2 -69 -48 -113t-110 -46q-68 2 -113 48t-47 111q1 60 44.5 108.5t115.5 51.5z
M756 1138q-68 2 -113 48t-47 111q1 60 44.5 108.5t115.5 51.5q65 -1 110 -45.5t47 -114.5q-2 -69 -47.5 -113t-109.5 -46z" />
    <glyph glyph-name="Aring" unicode="&#xc5;" horiz-adv-x="1255" 
d="M104 833q1 282 135 460.5t396 184.5q239 -7 375 -180.5t139 -432.5v-865h-422v896q2 47 -16 91.5t-76 47.5q-49 -3 -69 -39t-19 -71v-203h112v-385h-112v-337h-443v833zM629 1959q89 -3 147 -62.5t60 -142.5q-2 -84 -60 -144t-147 -63q-94 4 -150 66t-57 139q2 82 59 143
t148 64zM629 1826q-31 -1 -51 -21t-21 -53q1 -31 21 -51t53 -21q34 1 52.5 23t18.5 51q-1 29 -20.5 50t-52.5 22z" />
    <glyph glyph-name="icircumflex" unicode="&#xee;" horiz-adv-x="547" 
d="M80 1033h385v-1033h-385v1033zM199 1140h-251l138 233h377l141 -233h-254l-76 133z" />
    <glyph glyph-name="Oslash" unicode="&#xd8;" horiz-adv-x="1606" 
d="M805 1478q175 -6 299.5 -63t155.5 -91l165 166l152 -139l-176 -176q58 -57 105 -174t50 -279q-5 -309 -213 -524t-559 -225q-149 3 -266 45.5t-176 101.5l-180 -177l-142 142l183 182q-50 49 -101 167t-55 278q8 325 221.5 541.5t536.5 224.5zM471 714q0 -41 13 -90
t38 -76l453 448q-30 28 -77.5 43t-82.5 15q-142 -2 -241 -94.5t-103 -245.5zM791 394q147 3 243 94t99 238q-1 48 -18 97.5t-42 76.5l-452 -452q20 -20 69 -36.5t101 -17.5z" />
    <glyph glyph-name="AE" unicode="&#xc6;" horiz-adv-x="1614" 
d="M627 1478q109 -4 194.5 -40.5t108.5 -60.5q22 22 98 46t178 26h336v-422h-291q-31 1 -50 -15.5t-19 -56.5q0 -36 19 -52.5t56 -16.5h267v-324h-318q-31 0 -48 -18t-17 -53q0 -33 18 -52.5t49 -19.5h334v-419h-362q-207 6 -328.5 121.5t-124.5 268.5v498q2 59 -16 102
t-76 45q-50 -3 -69.5 -38.5t-18.5 -71.5v-203h112v-385h-112v-337h-443v833q3 297 142.5 469t380.5 176z" />
    <glyph glyph-name="aring" unicode="&#xe5;" horiz-adv-x="1208" 
d="M43 521q5 222 154 378t385 163q235 -2 387 -161t157 -453v-448h-385v501q0 66 -37.5 120.5t-111.5 57.5q-74 -3 -114.5 -49.5t-41.5 -104.5q1 -65 42.5 -107t105.5 -44q16 0 39.5 6t38.5 12v-400l-82 -2q-247 10 -390.5 170t-146.5 361zM610 1533q93 -3 146.5 -63.5
t54.5 -139.5q-2 -79 -57 -138.5t-144 -62.5q-89 3 -143.5 62.5t-56.5 140.5q2 80 57.5 139t142.5 62zM610 1402q-35 -2 -53 -24.5t-18 -47.5q0 -29 19 -49.5t52 -21.5q35 1 53.5 22.5t18.5 48.5t-17.5 49t-54.5 23z" />
    <glyph glyph-name="iacute" unicode="&#xed;" horiz-adv-x="547" 
d="M80 1033h385v-1033h-385v1033zM567 1373l-237 -233h-250l141 233h346z" />
    <glyph glyph-name="oslash" unicode="&#xf8;" horiz-adv-x="1171" 
d="M569 -27q-107 3 -188.5 32.5t-116.5 65.5l-145 -147l-124 110l150 158q-38 37 -72 121t-36 190q2 212 147 380.5t414 178.5q110 -4 194 -40.5t109 -61.5l131 133l133 -115l-145 -141q27 -24 68 -103.5t45 -208.5q-6 -249 -165.5 -398t-398.5 -154zM670 663q-14 14 -34 22
t-50 8q-64 0 -119 -48.5t-59 -141.5q0 -21 8 -43.5t22 -36.5zM578 339q85 3 133 54.5t49 115.5q-1 30 -10.5 56.5t-22.5 39.5l-231 -239q9 -9 34 -17.5t48 -9.5z" />
    <glyph glyph-name="ae" unicode="&#xe6;" horiz-adv-x="1870" 
d="M43 521q5 223 155 378.5t386 162.5q130 -4 225.5 -50t132.5 -85q37 39 130.5 85t221.5 50q244 -3 392.5 -163t152.5 -445h-579q-31 -1 -44.5 19t-13.5 77q0 55 14 76t41 20h183q-1 48 -36 78t-91 31q-89 -4 -129 -72.5t-39 -159.5q1 -101 45.5 -158.5t122.5 -58.5
q33 0 67 18t45 48l222 -275q-63 -53 -145.5 -87.5t-190.5 -36.5q-49 2 -95 10t-81 17h-394v501q0 66 -38.5 120.5t-110.5 57.5q-73 -2 -114 -47.5t-42 -106.5q2 -67 43.5 -108.5t104.5 -42.5q16 0 39.5 6t38.5 12v-398q-10 1 -28 0t-40 -2q-268 10 -409 171t-142 358z" />
    <glyph glyph-name="Adieresis" unicode="&#xc4;" horiz-adv-x="1255" 
d="M104 833q1 282 135 460.5t396 184.5q239 -7 375 -180.5t139 -432.5v-865h-422v896q2 47 -16 91.5t-76 47.5q-49 -3 -69 -39t-19 -71v-203h112v-385h-112v-337h-443v833zM422 1873q65 -2 110.5 -46.5t47.5 -113.5q-2 -69 -48 -113.5t-110 -46.5q-68 2 -113 48.5t-47 111.5
q1 60 44.5 108.5t115.5 51.5zM995 1713q-2 -69 -47.5 -113.5t-109.5 -46.5q-68 2 -113 48.5t-47 111.5q1 60 44.5 108.5t115.5 51.5q65 -2 110 -46.5t47 -113.5z" />
    <glyph glyph-name="igrave" unicode="&#xec;" horiz-adv-x="547" 
d="M80 1033h385v-1033h-385v1033zM-19 1373h343l141 -233h-250z" />
    <glyph glyph-name="Odieresis" unicode="&#xd6;" horiz-adv-x="1606" 
d="M47 724q9 324 229 535t537 219q317 -9 526 -225.5t217 -530.5q-7 -312 -215 -525.5t-536 -223.5q-343 13 -548 236t-210 515zM471 720q3 -135 95.5 -228.5t244.5 -97.5q133 3 225.5 95t96.5 235q-4 143 -98.5 235t-231.5 95q-142 -4 -235.5 -99.5t-96.5 -234.5zM436 1713
q1 60 44.5 108.5t115.5 51.5q65 -2 110.5 -46.5t47.5 -113.5q-2 -69 -48 -113.5t-110 -46.5q-68 2 -113 48.5t-47 111.5zM1012 1553q-68 2 -113 48.5t-47 111.5q1 60 44.5 108.5t115.5 51.5q65 -2 110 -46.5t47 -113.5q-2 -69 -47.5 -113.5t-109.5 -46.5z" />
    <glyph glyph-name="Udieresis" unicode="&#xdc;" horiz-adv-x="1219" 
d="M518 1449v-893q1 -85 28 -116t68 -29q38 1 60.5 28.5t23.5 75.5v934h424v-866q-6 -287 -151 -446.5t-363 -163.5q-189 -2 -346.5 147.5t-167.5 488.5v840h424zM401 1873q65 -2 110.5 -46.5t47.5 -113.5q-2 -69 -48 -113.5t-110 -46.5q-68 2 -112.5 48.5t-46.5 111.5
q1 60 44 108.5t115 51.5zM817 1553q-68 2 -113 48.5t-47 111.5q1 60 44.5 108.5t115.5 51.5q65 -2 110.5 -46.5t47.5 -113.5q-2 -69 -48 -113.5t-110 -46.5z" />
    <glyph glyph-name="Eacute" unicode="&#xc9;" horiz-adv-x="973" 
d="M614 886h267v-324h-318q-31 0 -48 -18.5t-17 -52.5q0 -33 17.5 -52.5t49.5 -19.5h334v-419h-362q-211 7 -331 124.5t-122 265.5v578q5 249 138.5 365.5t336.5 115.5h340v-422h-291q-35 0 -52 -19.5t-17 -52.5q0 -34 18.5 -51.5t56.5 -17.5zM864 1789l-237 -234h-250
l141 234h346z" />
    <glyph glyph-name="idieresis" unicode="&#xef;" horiz-adv-x="547" 
d="M80 1033h385v-1033h-385v1033zM68 1457q65 -1 110 -45.5t47 -114.5q-2 -69 -47.5 -113t-109.5 -46q-66 2 -110 48t-47 111q2 60 45 108.5t112 51.5zM641 1297q-2 -69 -48 -113t-110 -46q-68 2 -112.5 48t-46.5 111q1 60 44 108.5t115 51.5q65 -1 110.5 -45.5t47.5 -114.5
z" />
    <glyph glyph-name="germandbls" unicode="&#xdf;" horiz-adv-x="1161" 
d="M551 1478q189 -1 319 -113.5t136 -321.5q0 -100 -27 -159t-84 -113q93 -48 156.5 -132t66.5 -230q-2 -204 -127 -318.5t-346 -117.5q-43 2 -73 10t-50 17v333q2 0 28.5 -3t47.5 -3q74 1 106 36.5t31 94.5q-1 79 -58 112.5t-155 32.5v262q87 -1 126 25t38 88
q-1 44 -31.5 72.5t-83.5 29.5q-59 1 -85 -43.5t-25 -144.5v-892h-381v925q-2 258 110 404t361 149z" />
    <glyph glyph-name="Ocircumflex" unicode="&#xd4;" horiz-adv-x="1606" 
d="M813 1478q317 -9 526 -225.5t217 -530.5q-7 -312 -215 -525.5t-536 -223.5q-343 13 -548 236t-210 515q9 324 229 535t537 219zM471 720q3 -135 95.5 -228.5t244.5 -97.5q133 3 225.5 95t96.5 235q-4 143 -98.5 235t-231.5 95q-142 -4 -235.5 -99.5t-96.5 -234.5z
M727 1555h-254l141 234h377l142 -234h-254l-76 134z" />
    <glyph glyph-name="Aacute" unicode="&#xc1;" horiz-adv-x="1255" 
d="M104 833q1 282 135 460.5t396 184.5q239 -7 375 -180.5t139 -432.5v-865h-422v896q2 47 -16 91.5t-76 47.5q-49 -3 -69 -39t-19 -71v-203h112v-385h-112v-337h-443v833zM922 1789l-238 -234h-250l141 234h347z" />
    <glyph glyph-name="Atilde" unicode="&#xc3;" horiz-adv-x="1255" 
d="M104 833q1 282 135 460.5t396 184.5q239 -7 375 -180.5t139 -432.5v-865h-422v896q2 47 -16 91.5t-76 47.5q-49 -3 -69 -39t-19 -71v-203h112v-385h-112v-337h-443v833zM754 1762q21 0 46.5 8t43.5 19l88 -141q-33 -33 -88.5 -57t-120.5 -25q-63 2 -120.5 14t-92.5 14
q-28 0 -53 -7.5t-45 -16.5l-88 139q39 39 96 62t121 24q62 -2 115 -16.5t98 -16.5z" />
    <glyph glyph-name="atilde" unicode="&#xe3;" horiz-adv-x="1208" 
d="M43 521q5 222 154 378t385 163q235 -2 387 -161t157 -453v-448h-385v501q0 66 -37.5 120.5t-111.5 57.5q-74 -3 -114.5 -49.5t-41.5 -104.5q1 -65 42.5 -107t105.5 -44q16 0 39.5 6t38.5 12v-400l-82 -2q-247 10 -390.5 170t-146.5 361zM729 1347q21 0 46.5 7.5
t43.5 18.5l88 -141q-33 -33 -88.5 -57t-120.5 -25q-63 2 -120.5 14.5t-92.5 14.5q-27 0 -52.5 -8t-45.5 -17l-88 139q39 40 96 63t121 23q62 -2 115.5 -16t97.5 -16z" />
    <glyph glyph-name="Eth" unicode="&#xd0;" horiz-adv-x="1505" 
d="M113 1449h563q343 -7 558 -208.5t222 -520.5q-6 -310 -214 -511.5t-542 -208.5h-88v429h66q167 2 256 80t90 215q0 127 -88.5 208.5t-261.5 84.5h-129v-193h194v-196h-194v-628h-432v628h-113v196h113v625z" />
    <glyph glyph-name="eth" unicode="&#xf0;" horiz-adv-x="1069" 
d="M37 552q4 212 117 359t290 153q24 0 33 -1t19 -1l-99 117l-237 -90l-68 104l221 78l-73 80l252 147l118 -117l221 76l56 -104l-182 -68l124 -127q92 -96 146 -253t55 -316q-6 -287 -146 -449.5t-341 -166.5q-229 8 -366 174.5t-140 404.5zM403 544q1 -59 37 -104.5
t92 -47.5q58 3 94.5 48.5t37.5 103.5q-1 62 -38 104.5t-94 44.5q-53 -2 -90 -46t-39 -103z" />
    <glyph glyph-name="eth" unicode="&#x111;" horiz-adv-x="1069" 
d="M37 552q4 212 117 359t290 153q24 0 33 -1t19 -1l-99 117l-237 -90l-68 104l221 78l-73 80l252 147l118 -117l221 76l56 -104l-182 -68l124 -127q92 -96 146 -253t55 -316q-6 -287 -146 -449.5t-341 -166.5q-229 8 -366 174.5t-140 404.5zM403 544q1 -59 37 -104.5
t92 -47.5q58 3 94.5 48.5t37.5 103.5q-1 62 -38 104.5t-94 44.5q-53 -2 -90 -46t-39 -103z" />
    <glyph glyph-name="Iacute" unicode="&#xcd;" horiz-adv-x="643" 
d="M537 0h-433v1449h433v-1449zM616 1789l-239 -234h-248l139 234h348z" />
    <glyph glyph-name="Igrave" unicode="&#xcc;" horiz-adv-x="643" 
d="M537 0h-433v1449h433v-1449zM27 1789h346l141 -234h-250z" />
    <glyph glyph-name="Oacute" unicode="&#xd3;" horiz-adv-x="1606" 
d="M47 724q9 324 229 535t537 219q317 -9 526 -225.5t217 -530.5q-7 -312 -215 -525.5t-536 -223.5q-343 13 -548 236t-210 515zM471 720q3 -135 95.5 -228.5t244.5 -97.5q133 3 225.5 95t96.5 235q-4 143 -98.5 235t-231.5 95q-142 -4 -235.5 -99.5t-96.5 -234.5zM750 1789
h346l-238 -234h-250z" />
    <glyph glyph-name="Ograve" unicode="&#xd2;" horiz-adv-x="1606" 
d="M47 724q9 324 229 535t537 219q317 -9 526 -225.5t217 -530.5q-7 -312 -215 -525.5t-536 -223.5q-343 13 -548 236t-210 515zM471 720q3 -135 95.5 -228.5t244.5 -97.5q133 3 225.5 95t96.5 235q-4 143 -98.5 235t-231.5 95q-142 -4 -235.5 -99.5t-96.5 -234.5zM508 1789
h346l141 -234h-250z" />
    <glyph glyph-name="Otilde" unicode="&#xd5;" horiz-adv-x="1606" 
d="M47 724q9 324 229 535t537 219q317 -9 526 -225.5t217 -530.5q-7 -312 -215 -525.5t-536 -223.5q-343 13 -548 236t-210 515zM471 720q3 -135 95.5 -228.5t244.5 -97.5q133 3 225.5 95t96.5 235q-4 143 -98.5 235t-231.5 95q-142 -4 -235.5 -99.5t-96.5 -234.5zM928 1762
q21 0 46.5 8t43.5 19l88 -141q-33 -33 -88.5 -57t-120.5 -25q-63 2 -120.5 14t-92.5 14q-28 0 -53 -7.5t-45 -16.5l-88 139q39 39 96 62t121 24q62 -2 115 -16.5t98 -16.5z" />
    <glyph glyph-name="otilde" unicode="&#xf5;" horiz-adv-x="1169" 
d="M584 -27q-232 7 -386.5 161.5t-160.5 380.5q4 206 151.5 371.5t389.5 175.5q241 -7 394 -164t158 -383q-5 -227 -157 -381t-389 -161zM442 515q1 -56 38 -98.5t104 -44.5q65 2 103.5 42.5t39.5 102.5q-1 59 -41.5 100.5t-101.5 43.5q-60 -1 -100 -41.5t-42 -104.5z
M709 1347q21 0 46.5 7.5t43.5 18.5l88 -141q-33 -33 -88.5 -57t-120.5 -25q-63 2 -120.5 14.5t-92.5 14.5q-28 0 -53 -8t-45 -17l-88 139q39 40 96 63t121 23q62 -2 115 -16t98 -16z" />
    <glyph glyph-name="Scaron" unicode="&#x160;" horiz-adv-x="821" 
d="M741 1789l-141 -234h-377l-141 234h254l76 -133l75 133h254zM582 1478q73 -1 126.5 -14t94.5 -29v-420q-25 11 -54 20.5t-61 10.5q-56 -1 -86.5 -32.5t-30.5 -78.5q0 -45 23.5 -87t53.5 -93t54.5 -121t26.5 -172q-9 -231 -160.5 -360.5t-341.5 -132.5q-57 2 -103.5 11.5
t-66.5 15.5v409q4 -1 36.5 -5.5t49.5 -5.5q50 1 78.5 29t28.5 72q-2 63 -27.5 111t-58.5 97.5t-57.5 112t-24.5 152.5q3 193 136.5 347t363.5 163z" />
    <glyph glyph-name="scaron" unicode="&#x161;" horiz-adv-x="793" 
d="M772 1033v-413q-33 1 -57 -5t-45 -26q-37 -37 -44.5 -84t-11.5 -103.5t-27.5 -122t-90.5 -137.5q-70 -69 -165.5 -106t-213.5 -38q-28 1 -54 1.5t-45 0.5v417q58 -1 96.5 6.5t65.5 34.5q31 35 37 89t9 119.5t25.5 135t90.5 135.5q53 52 117.5 74.5t138.5 21.5h174z
M473 1373h254l-141 -233h-377l-141 233h254l75 -133z" />
    <glyph glyph-name="Uacute" unicode="&#xda;" horiz-adv-x="1219" 
d="M518 1449v-893q1 -85 28 -116t68 -29q38 1 60.5 28.5t23.5 75.5v934h424v-866q-6 -287 -151 -446.5t-363 -163.5q-189 -2 -346.5 147.5t-167.5 488.5v840h424zM901 1789l-237 -234h-250l141 234h346z" />
    <glyph glyph-name="Ydieresis" unicode="&#x178;" horiz-adv-x="1227" 
d="M-22 1449h430l204 -289l205 289h430l-420 -659v-790h-432v790zM408 1873q65 -2 110 -46.5t47 -113.5q-2 -69 -48 -113.5t-109 -46.5q-68 2 -113 48.5t-47 111.5q1 60 44.5 108.5t115.5 51.5zM981 1713q-2 -69 -48 -113.5t-110 -46.5q-68 2 -112.5 48.5t-46.5 111.5
q1 60 44 108.5t115 51.5q65 -2 110.5 -46.5t47.5 -113.5z" />
    <glyph glyph-name="ydieresis" unicode="&#xff;" horiz-adv-x="1096" 
d="M80 1033h395v-489q0 -76 18 -109.5t60 -32.5q41 2 58.5 30.5t17.5 53.5v547h385v-960q-2 -210 -165.5 -387.5t-457.5 -189.5q-43 2 -83.5 10t-69.5 15v352q22 -11 54 -20.5t58 -10.5q141 5 209 79t68 164q-38 -39 -88 -62t-125 -25q-138 2 -234 99t-100 267v669z
M340 1457q65 -1 110.5 -45.5t47.5 -114.5q-2 -69 -48 -113t-110 -46q-68 2 -113 48t-47 111q1 60 44.5 108.5t115.5 51.5zM913 1297q-2 -69 -47.5 -113t-109.5 -46q-68 2 -113 48t-47 111q1 60 44.5 108.5t115.5 51.5q65 -1 110 -45.5t47 -114.5z" />
    <glyph glyph-name="Thorn" unicode="&#xde;" horiz-adv-x="1200" 
d="M672 1226q255 -10 382.5 -166.5t127.5 -345.5q-5 -217 -146.5 -339t-353.5 -124q-35 0 -52.5 1l-17.5 1v362q8 0 17 -1t18 -1q51 0 85.5 31.5t35.5 91.5q0 44 -32 80.5t-91 38.5q-51 -2 -84.5 -42.5t-34.5 -100.5v-712h-432v1449h432v-244q26 10 62 15.5t84 5.5z" />
    <glyph glyph-name="thorn" unicode="&#xfe;" horiz-adv-x="1208" 
d="M465 -502h-385v1951h385v-428q37 13 86.5 23.5t103.5 11.5q216 -7 359.5 -161t148.5 -376q-5 -225 -154 -373.5t-388 -155.5q-29 1 -52 2t-24 0v400q16 -8 39 -14t45 -6q63 2 102.5 44.5t40.5 102.5q0 62 -39.5 109t-114.5 49q-61 0 -106 -51t-47 -152v-976z" />
    <glyph glyph-name="smallbullet" unicode="&#x2219;" horiz-adv-x="561" 
d="M86 722q2 78 57 136t144 61q80 -3 134 -59.5t56 -137.5q-2 -75 -54.5 -134.5t-135.5 -62.5q-84 2 -141.5 57t-59.5 140z" />
    <glyph glyph-name="mu" unicode="&#xb5;" horiz-adv-x="1368" 
d="M596 1078l-86 -663q-1 -56 28 -93.5t101 -39.5q39 0 69.5 13t49.5 32q22 22 36.5 59t29 112.5t34 215t49.5 364.5h414l-158 -1078h-366l22 134q-28 -56 -71.5 -95.5t-122.5 -42.5q-67 2 -110 37t-62 87l-72 -540h-405l204 1498h416z" />
    <glyph glyph-name="paragraph" unicode="&#xb6;" 
d="M1008 1467v-137h-101v-1330h-200v1330h-140v-1330h-200v779q-153 3 -253 98.5t-104 247.5q3 143 101 240.5t262 101.5h635z" />
    <glyph glyph-name="threequarters" unicode="&#xbe;" horiz-adv-x="1757" 
d="M88 1449h553l-170 -315q74 -20 120.5 -76.5t47.5 -151.5q-2 -131 -102.5 -206.5t-282.5 -77.5q-53 0 -95 7.5t-71 16.5v234q30 -15 67.5 -24t69.5 -9q61 0 97.5 25.5t37.5 70.5q-1 44 -39 73t-106 30q-19 0 -42.5 -3.5t-25.5 -3.5l107 179h-166v231zM1696 810v-810h-236
v677l-135 -287h86v-155h-373l275 575h383zM575 0h-206l813 1449h204z" />
    <glyph glyph-name="minus" unicode="&#x2212;" horiz-adv-x="1700" 
d="M254 740h1192v-274h-1192v274z" />
    <glyph glyph-name="onequarter" unicode="&#xbc;" horiz-adv-x="1755" 
d="M487 1449v-813h-272v813h272zM1384 1449l-813 -1449h-204l813 1449h204zM1311 810h383v-810h-236v677l-135 -287h86v-155h-373z" />
    <glyph glyph-name="onehalf" unicode="&#xbd;" horiz-adv-x="1755" 
d="M1065 536q2 122 94 204.5t244 85.5q147 -4 233 -84t88 -188q3 -56 -26 -112t-129 -214h153v-228h-594q119 177 188.5 279.5t102.5 152.5t42 70.5t9 37.5q0 31 -20 49t-61 18q-39 -1 -59.5 -21.5t-20.5 -49.5q0 -18 8 -32.5t22 -21.5l-116 -176q-68 31 -112 87.5
t-46 142.5zM571 0h-204l813 1449h204zM487 1449v-813h-272v813h272z" />
    <glyph glyph-name="ordfeminine" unicode="&#xaa;" horiz-adv-x="907" 
d="M438 1469q192 -4 299 -122t109 -299v-324h-289v348q-1 58 -32 93t-81 36q-46 -1 -80 -29t-36 -77q1 -49 33 -77.5t79 -29.5q21 1 39 7.5t19 7.5v-283l-15.5 -1t-40.5 -1q-189 6 -298 116.5t-111 256.5q4 160 118.5 267t286.5 111z" />
    <glyph glyph-name="ordmasculine" unicode="&#xba;" horiz-adv-x="879" 
d="M434 1469q187 -6 299 -117.5t115 -262.5q-4 -162 -118.5 -270.5t-291.5 -112.5q-188 6 -297.5 120t-111.5 263q5 160 122 268t283 112zM332 1089q1 -42 29 -72t77 -31q50 1 79 30t30 70q-1 42 -32 72t-77 31q-47 -1 -76 -30.5t-30 -69.5z" />
    <glyph glyph-name="guillemotleft" unicode="&#xab;" horiz-adv-x="662" 
d="M438 783h201l-102 -268l100 -268h-199l-102 268zM250 515l100 -268h-198l-103 268l103 268h200z" />
    <glyph glyph-name="guilsinglleft" unicode="&#x2039;" horiz-adv-x="373" 
d="M152 783h200l-102 -268l100 -268h-198l-103 268z" />
    <glyph glyph-name="guillemotright" unicode="&#xbb;" horiz-adv-x="662" 
d="M219 783l103 -268l-103 -268h-199l101 268l-103 268h201zM313 247l101 268l-103 268h201l102 -268l-102 -268h-199z" />
    <glyph glyph-name="plusminus" unicode="&#xb1;" horiz-adv-x="1700" 
d="M989 1250v-309h457v-270h-457v-307h-276v309h-459v268h459v309h276zM1446 -41h-1192v265h1192v-265z" />
    <glyph glyph-name="guilsinglright" unicode="&#x203a;" horiz-adv-x="373" 
d="M18 783h201l103 -268l-103 -268h-199l101 268z" />
    <glyph glyph-name="Delta" unicode="&#x2206;" horiz-adv-x="1425" 
d="M733 1431l651 -1431h-1335l651 1431h33zM647 1099l-450 -1008h905z" />
    <glyph glyph-name="partialdiff" unicode="&#x2202;" 
d="M414 1078q-34 0 -54 15.5t-20 46.5q2 60 58 102.5t147 44.5q150 -1 247.5 -138t100.5 -402q-3 -317 -126 -539t-329 -233q-137 4 -219 102t-84 260q3 194 103.5 310.5t257.5 119.5q88 1 144.5 -42t92.5 -146q16 59 22.5 138.5t6.5 164.5q0 169 -33 254.5t-98 85.5
q-53 -9 -101 -72t-116 -72zM524 710q-101 -1 -171.5 -117.5t-73.5 -341.5q3 -136 55 -188t117 -50q123 6 186 137.5t63 321.5q-1 109 -48 173t-128 65z" />
    <glyph glyph-name="notequal" unicode="&#x2260;" horiz-adv-x="1700" 
d="M823 472h619v-131h-705l-245 -315l-107 82l188 233h-319v131h401l209 262h-610v131h700l246 316l98 -78l-180 -238h324v-131h-414z" />
    <glyph glyph-name="periodcentered" unicode="&#xb7;" horiz-adv-x="1028" 
d="M512 550q-51 2 -88 39t-39 88q2 51 39 88t88 39q51 -2 88 -39t39 -88q-2 -51 -39 -88t-88 -39z" />
    <glyph glyph-name="bullet" unicode="&#x2022;" horiz-adv-x="1204" 
d="M598 1046q134 -5 213.5 -92.5t81.5 -202.5q-2 -115 -81.5 -201t-213.5 -90q-131 4 -210 90t-81 201q2 115 81 202.5t210 92.5z" />
    <glyph glyph-name="integral" unicode="&#x222b;" 
d="M717 1435q-81 -14 -103.5 -269.5t-19.5 -582.5q2 -425 -86 -684.5t-295 -267.5q-81 2 -124.5 40t-43.5 100q0 47 26 71t72 23q80 -7 88.5 -64.5t63.5 -66.5q83 11 104.5 253.5t18.5 599.5q-2 411 86 676t295 274q80 -1 123.5 -38.5t44.5 -100.5q0 -46 -26 -68t-73 -22
q-79 8 -87.5 63.5t-63.5 63.5z" />
    <glyph glyph-name="quotesinglbase" unicode="&#x201a;" horiz-adv-x="508" 
d="M119 95q0 45 29.5 77.5t93.5 33.5q60 1 108 -42t51 -138q1 -102 -65 -191.5t-209 -170.5l-25 29q89 59 154 126.5t68 143.5q0 25 -10 32t-31 6q-13 0 -27.5 -0.5t-30.5 -0.5q-47 0 -76 22t-30 73z" />
    <glyph glyph-name="breve" unicode="&#x2d8;" 
d="M262 1402q29 -92 94.5 -117t147.5 -22q81 -3 146.5 22t94.5 117h46q-12 -110 -82.5 -186.5t-204.5 -79.5q-135 3 -205 79.5t-82 186.5h45z" />
    <glyph glyph-name="caron" unicode="&#x2c7;" 
d="M221 1439h58l233 -213l229 213h58l-230 -344h-118z" />
    <glyph glyph-name="dotaccent" unicode="&#x2d9;" 
d="M512 1140q-44 1 -74.5 31.5t-31.5 74.5q1 45 31.5 75.5t74.5 31.5q44 -1 74.5 -31.5t31.5 -75.5q-1 -44 -31.5 -74.5t-74.5 -31.5z" />
    <glyph glyph-name="lozenge" unicode="&#x25ca;" horiz-adv-x="2040" 
d="M434 673l578 737l590 -733l-590 -734zM1016 1230l-438 -553l438 -553l446 553z" />
    <glyph glyph-name="fraction" unicode="&#x2215;" horiz-adv-x="340" 
d="M676 1435l-923 -1460h-90l923 1460h90z" />
    <glyph glyph-name="product" unicode="&#x220f;" horiz-adv-x="1700" 
d="M66 1549h1564v-82h-180v-1868h180v-82h-536v82h168v1868h-828v-1868h168v-82h-536v82h180v1868h-180v82z" />
  </font>
</defs>
</svg>
